SplineFontDB: 3.0
FontName: NanumGothic
FullName: NanumGothic
FamilyName: NanumGothic
Weight: Book
Copyright: Copyright (c) 2011 NHN Corporation. All rights reserved. Font designed by Sandoll Communications Inc.
Version: 3.020;PS 1;hotconv 1.0.57;makeotf.lib2.0.21895
ItalicAngle: 0
UnderlinePosition: -289
UnderlineWidth: 58
Ascent: 800
Descent: 200
InvalidEm: 0
sfntRevision: 0x00040000
LayerCount: 2
Layer: 0 1 "Back" 1
Layer: 1 1 "Fore" 0
XUID: [1021 542 582384140 10696232]
StyleMap: 0x0040
FSType: 8
OS2Version: 2
OS2_WeightWidthSlopeOnly: 0
OS2_UseTypoMetrics: 0
CreationTime: 1214584693
ModificationTime: 1465956867
PfmFamily: 17
TTFWeight: 400
TTFWidth: 5
LineGap: 0
VLineGap: 0
Panose: 2 13 6 4 0 0 0 0 0 0
OS2TypoAscent: 800
OS2TypoAOffset: 0
OS2TypoDescent: -200
OS2TypoDOffset: 0
OS2TypoLinegap: 0
OS2WinAscent: 920
OS2WinAOffset: 0
OS2WinDescent: 230
OS2WinDOffset: 0
HheadAscent: 920
HheadAOffset: 0
HheadDescent: -230
HheadDOffset: 0
OS2SubXSize: 700
OS2SubYSize: 640
OS2SubXOff: 0
OS2SubYOff: 120
OS2SupXSize: 700
OS2SupYSize: 640
OS2SupXOff: 0
OS2SupYOff: 520
OS2StrikeYSize: 50
OS2StrikeYPos: 250
OS2CapHeight: 700
OS2XHeight: 500
OS2FamilyClass: 2048
OS2Vendor: 'SAND'
OS2CodePages: 00080001.00000000
OS2UnicodeRanges: 900002a7.29d7fcfb.00000010.00000000
Lookup: 258 0 0 "'kern' Horizontal Kerning in Latin lookup 0" { "'kern' Horizontal Kerning in Latin lookup 0 subtable"  } ['kern' ('latn' <'dflt' > ) ]
DEI: 91125
TtTable: prep
NPUSHB
 114
 118
 110
 41
 31
 116
 114
 100
 31
 114
 67
 41
 31
 112
 110
 100
 31
 110
 66
 27
 31
 105
 97
 41
 31
 103
 101
 100
 31
 101
 67
 41
 31
 99
 97
 100
 31
 97
 66
 27
 31
 89
 81
 41
 31
 87
 85
 100
 31
 85
 67
 41
 31
 83
 81
 100
 31
 81
 66
 27
 31
 76
 68
 41
 31
 74
 72
 100
 31
 72
 67
 41
 31
 70
 68
 100
 31
 68
 66
 27
 31
 67
 65
 17
 31
 66
 65
 17
 31
 15
 42
 14
 85
 11
 42
 10
 85
 7
 42
 6
 85
 1
 42
 0
 85
 9
 42
 8
 85
 3
 42
 2
 85
 84
 83
PUSHW_1
 256
PUSHB_4
 22
 1
 5
 1
PUSHW_1
 400
MPPEM
PUSHW_1
 2047

StartChar: exclam
Encoding: 33 33 1
Width: 424
Flags: W
LayerCount: 2
Fore
SplineSet
234 706 m 2,0,1
 253 706 253 706 256 702.5 c 128,-1,2
 259 699 259 699 259 680 c 2,3,-1
 248 163 l 2,4,5
 248 146 248 146 245 143.5 c 128,-1,6
 242 141 242 141 225 141 c 2,7,-1
 209 141 l 2,8,9
 193 141 193 141 190.5 143.5 c 128,-1,10
 188 146 188 146 187 162 c 2,11,-1
 175 680 l 2,12,13
 175 690 175 690 175 695 c 128,-1,14
 175 700 175 700 177.5 702.5 c 128,-1,15
 180 705 180 705 185 705.5 c 128,-1,16
 190 706 190 706 200 706 c 2,17,-1
 234 706 l 2,0,1
183 38.5 m 128,-1,19
 197 53 197 53 217 53 c 256,20,21
 237 53 237 53 251.5 38.5 c 128,-1,22
 266 24 266 24 266 4 c 256,23,24
 266 -16 266 -16 251.5 -30 c 128,-1,25
 237 -44 237 -44 217 -44 c 256,26,27
 197 -44 197 -44 183 -30 c 128,-1,28
 169 -16 169 -16 169 4 c 256,29,18
 169 24 169 24 183 38.5 c 128,-1,19
EndSplineSet
EndChar

StartChar: quotedbl
Encoding: 34 34 2
Width: 430
Flags: W
LayerCount: 2
Fore
SplineSet
177.5 474.5 m 128,-1,1
 176 473 176 473 165 473 c 2,2,-1
 127 473 l 2,3,4
 116 473 116 473 114.5 474.5 c 128,-1,5
 113 476 113 476 113 487 c 2,6,-1
 113 690 l 2,7,8
 113 701 113 701 114.5 702.5 c 128,-1,9
 116 704 116 704 127 704 c 2,10,-1
 165 704 l 2,11,12
 176 704 176 704 177.5 702.5 c 128,-1,13
 179 701 179 701 179 690 c 2,14,-1
 179 487 l 2,15,0
 179 476 179 476 177.5 474.5 c 128,-1,1
319.5 474.5 m 128,-1,17
 318 473 318 473 307 473 c 2,18,-1
 270 473 l 2,19,20
 259 473 259 473 257.5 474.5 c 128,-1,21
 256 476 256 476 256 487 c 2,22,-1
 256 690 l 2,23,24
 256 701 256 701 257.5 702.5 c 128,-1,25
 259 704 259 704 270 704 c 2,26,-1
 307 704 l 2,27,28
 318 704 318 704 319.5 702.5 c 128,-1,29
 321 701 321 701 321 690 c 2,30,-1
 321 487 l 2,31,16
 321 476 321 476 319.5 474.5 c 128,-1,17
EndSplineSet
EndChar

StartChar: numbersign
Encoding: 35 35 3
Width: 606
Flags: W
LayerCount: 2
Fore
SplineSet
393 415 m 1,0,-1
 253 415 l 1,1,2
 248 373 248 373 242 333.5 c 128,-1,3
 236 294 236 294 231 253 c 1,4,-1
 370 253 l 1,5,-1
 393 415 l 1,0,-1
565 432 m 2,6,7
 565 419 565 419 563 417 c 128,-1,8
 561 415 561 415 549 415 c 2,9,-1
 456 415 l 1,10,11
 451 373 451 373 444.5 333.5 c 128,-1,12
 438 294 438 294 433 253 c 1,13,-1
 518 253 l 2,14,15
 532 253 532 253 534 251 c 128,-1,16
 536 249 536 249 536 237 c 2,17,-1
 536 213 l 2,18,19
 536 200 536 200 534 198 c 128,-1,20
 532 196 532 196 518 196 c 2,21,-1
 425 196 l 1,22,-1
 395 -20 l 2,23,24
 393 -33 393 -33 391 -35 c 128,-1,25
 389 -37 389 -37 377 -37 c 2,26,-1
 348 -37 l 2,27,28
 334 -37 334 -37 332 -35 c 128,-1,29
 330 -33 330 -33 332 -20 c 2,30,-1
 362 196 l 1,31,-1
 222 196 l 1,32,-1
 192 -21 l 2,33,34
 190 -33 190 -33 187.5 -35 c 128,-1,35
 185 -37 185 -37 171 -37 c 2,36,-1
 144 -37 l 2,37,38
 130 -37 130 -37 128 -35 c 128,-1,39
 126 -33 126 -33 128 -21 c 2,40,-1
 159 196 l 1,41,-1
 64 196 l 2,42,43
 52 196 52 196 50 198 c 128,-1,44
 48 200 48 200 48 212 c 2,45,-1
 48 237 l 2,46,47
 48 249 48 249 50 251 c 128,-1,48
 52 253 52 253 64 253 c 2,49,-1
 166 253 l 1,50,51
 172 294 172 294 177.5 333.5 c 128,-1,52
 183 373 183 373 189 415 c 1,53,-1
 90 415 l 2,54,55
 79 415 79 415 77 416.5 c 128,-1,56
 75 418 75 418 75 429 c 2,57,-1
 75 456 l 2,58,59
 75 467 75 467 77 469 c 128,-1,60
 79 471 79 471 90 471 c 2,61,-1
 197 471 l 1,62,-1
 227 689 l 2,63,64
 229 700 229 700 230.5 702 c 128,-1,65
 232 704 232 704 243 704 c 2,66,-1
 279 704 l 2,67,68
 290 704 290 704 291.5 702.5 c 128,-1,69
 293 701 293 701 291 690 c 2,70,-1
 260 471 l 1,71,-1
 399 471 l 1,72,-1
 430 690 l 2,73,74
 432 701 432 701 433.5 702.5 c 128,-1,75
 435 704 435 704 445 704 c 2,76,-1
 482 704 l 2,77,78
 493 704 493 704 494.5 702 c 128,-1,79
 496 700 496 700 494 689 c 2,80,-1
 462 471 l 1,81,-1
 549 471 l 2,82,83
 561 471 561 471 563 469 c 128,-1,84
 565 467 565 467 565 455 c 2,85,-1
 565 432 l 2,6,7
EndSplineSet
EndChar

StartChar: dollar
Encoding: 36 36 4
Width: 606
Flags: W
LayerCount: 2
Fore
SplineSet
442 166 m 0,0,1
 442 226 442 226 338 289 c 1,2,-1
 338 24 l 1,3,4
 389 39 389 39 415.5 74 c 128,-1,5
 442 109 442 109 442 166 c 0,0,1
284 649 m 1,6,7
 174 627 174 627 174 525 c 0,8,9
 174 460 174 460 284 401 c 1,10,-1
 284 649 l 1,6,7
515 159 m 0,11,12
 515 76 515 76 460 21 c 0,13,14
 412 -27 412 -27 338 -43 c 1,15,-1
 338 -112 l 2,16,17
 338 -126 338 -126 336 -128.5 c 128,-1,18
 334 -131 334 -131 321 -131 c 2,19,-1
 302 -131 l 2,20,21
 288 -131 288 -131 286 -129 c 128,-1,22
 284 -127 284 -127 284 -113 c 2,23,-1
 284 -49 l 1,24,25
 279 -50 279 -50 273.5 -50 c 128,-1,26
 268 -50 268 -50 262 -50 c 0,27,28
 223 -50 223 -50 176 -40 c 0,29,30
 146 -33 146 -33 124 -25 c 0,31,32
 109 -19 109 -19 106.5 -15.5 c 128,-1,33
 104 -12 104 -12 106 2 c 2,34,-1
 110 38 l 2,35,36
 112 52 112 52 115.5 52.5 c 128,-1,37
 119 53 119 53 130 46 c 0,38,39
 185 14 185 14 261 14 c 0,40,41
 267 14 267 14 273 14 c 128,-1,42
 279 14 279 14 284 15 c 1,43,-1
 284 319 l 1,44,45
 241 342 241 342 211 363 c 128,-1,46
 181 384 181 384 161 402 c 0,47,48
 102 457 102 457 102 523 c 0,49,50
 102 599 102 599 155 649 c 0,51,52
 181 675 181 675 212 690.5 c 128,-1,53
 243 706 243 706 284 713 c 1,54,-1
 284 769 l 2,55,56
 284 780 284 780 286 781.5 c 128,-1,57
 288 783 288 783 299 783 c 2,58,-1
 321 783 l 2,59,60
 334 783 334 783 336 781.5 c 128,-1,61
 338 780 338 780 338 769 c 2,62,-1
 338 717 l 1,63,64
 411 717 411 717 465 699 c 0,65,66
 474 696 474 696 477 692.5 c 128,-1,67
 480 689 480 689 478 675 c 2,68,-1
 474 645 l 2,69,70
 472 634 472 634 467.5 632 c 128,-1,71
 463 630 463 630 452 635 c 0,72,73
 429 645 429 645 401 649 c 128,-1,74
 373 653 373 653 338 654 c 1,75,-1
 338 372 l 1,76,77
 379 350 379 350 409.5 329.5 c 128,-1,78
 440 309 440 309 458 289 c 0,79,80
 515 233 515 233 515 159 c 0,11,12
EndSplineSet
EndChar

StartChar: percent
Encoding: 37 37 5
Width: 1090
Flags: W
LayerCount: 2
Fore
SplineSet
394 513 m 0,0,1
 394 655 394 655 292 655 c 0,2,3
 191 655 191 655 191 513 c 0,4,5
 191 454 191 454 212 418 c 0,6,7
 240 372 240 372 292 372 c 0,8,9
 345 372 345 372 373 418 c 0,10,11
 394 454 394 454 394 513 c 0,0,1
897 154 m 0,12,13
 897 295 897 295 796 295 c 0,14,15
 693 295 693 295 693 154 c 0,16,17
 693 96 693 96 715 59 c 0,18,19
 741 12 741 12 796 12 c 0,20,21
 897 12 897 12 897 154 c 0,12,13
780 728 m 2,22,23
 793 728 793 728 794 726 c 128,-1,24
 795 724 795 724 789 713 c 2,25,-1
 366 -44 l 2,26,27
 359 -56 359 -56 355.5 -58 c 128,-1,28
 352 -60 352 -60 338 -60 c 2,29,-1
 309 -60 l 2,30,31
 295 -60 295 -60 293.5 -58 c 128,-1,32
 292 -56 292 -56 300 -42 c 2,33,-1
 722 715 l 2,34,35
 727 725 727 725 730 726.5 c 128,-1,36
 733 728 733 728 744 728 c 2,37,-1
 780 728 l 2,22,23
460 513 m 0,38,39
 460 424 460 424 421 373 c 0,40,41
 399 345 399 345 366.5 330 c 128,-1,42
 334 315 334 315 292 315 c 256,43,44
 250 315 250 315 218 330 c 128,-1,45
 186 345 186 345 164 373 c 0,46,47
 125 426 125 426 125 513 c 0,48,49
 125 602 125 602 164 655 c 0,50,51
 209 712 209 712 292 712 c 0,52,53
 376 712 376 712 421 655 c 0,54,55
 460 604 460 604 460 513 c 0,38,39
963 154 m 0,56,57
 963 64 963 64 924 13 c 0,58,59
 880 -43 880 -43 796 -43 c 0,60,61
 711 -43 711 -43 667 13 c 0,62,63
 629 63 629 63 629 154 c 0,64,65
 629 244 629 244 667 296 c 0,66,67
 689 324 689 324 721.5 339 c 128,-1,68
 754 354 754 354 796 354 c 0,69,70
 881 354 881 354 924 296 c 0,71,72
 963 245 963 245 963 154 c 0,56,57
EndSplineSet
EndChar

StartChar: ampersand
Encoding: 38 38 6
Width: 727
Flags: W
LayerCount: 2
Fore
SplineSet
445 553 m 0,0,1
 445 604 445 604 416 633 c 0,2,3
 389 660 389 660 339 660 c 0,4,5
 314 660 314 660 292.5 653 c 128,-1,6
 271 646 271 646 254 633 c 0,7,8
 216 600 216 600 216 552 c 0,9,10
 216 523 216 523 240 482.5 c 128,-1,11
 264 442 264 442 300 400 c 1,12,13
 336 417 336 417 361.5 431 c 128,-1,14
 387 445 387 445 398 455 c 0,15,16
 445 496 445 496 445 553 c 0,0,1
278 332 m 1,17,18
 217 308 217 308 181 267 c 0,19,20
 137 220 137 220 137 160 c 0,21,22
 137 91 137 91 190 46 c 0,23,24
 241 7 241 7 310 7 c 0,25,26
 335 7 335 7 361 13.5 c 128,-1,27
 387 20 387 20 411 31.5 c 128,-1,28
 435 43 435 43 456.5 59 c 128,-1,29
 478 75 478 75 494 94 c 1,30,-1
 278 332 l 1,17,18
694 -25 m 2,31,32
 702 -33 702 -33 701 -34 c 128,-1,33
 700 -35 700 -35 689 -35 c 2,34,-1
 627 -35 l 2,35,36
 617 -35 617 -35 614.5 -34.5 c 128,-1,37
 612 -34 612 -34 605 -26 c 2,38,-1
 535 49 l 1,39,40
 446 -50 446 -50 308 -50 c 0,41,42
 207 -50 207 -50 140 0 c 0,43,44
 66 57 66 57 66 157 c 0,45,46
 66 306 66 306 242 373 c 1,47,48
 216 402 216 402 200 421.5 c 128,-1,49
 184 441 184 441 176 454 c 0,50,51
 144 506 144 506 144 556 c 0,52,53
 144 629 144 629 208 676 c 0,54,55
 235 695 235 695 270 706 c 128,-1,56
 305 717 305 717 343 717 c 0,57,58
 415 717 415 717 464 680 c 0,59,60
 518 635 518 635 518 564 c 0,61,62
 518 484 518 484 461 436 c 1,63,-1
 461 437 l 1,64,65
 444 422 444 422 414 403.5 c 128,-1,66
 384 385 384 385 338 362 c 1,67,68
 389 306 389 306 436.5 253 c 128,-1,69
 484 200 484 200 534 144 c 1,70,71
 566 189 566 189 581.5 240.5 c 128,-1,72
 597 292 597 292 599 355 c 0,73,74
 599 366 599 366 601 368 c 128,-1,75
 603 370 603 370 614 370 c 2,76,-1
 646 370 l 2,77,78
 658 370 658 370 660 368 c 128,-1,79
 662 366 662 366 662 355 c 0,80,81
 660 289 660 289 640 225 c 128,-1,82
 620 161 620 161 578 101 c 1,83,-1
 694 -25 l 2,31,32
EndSplineSet
EndChar

StartChar: quotesingle
Encoding: 39 39 7
Width: 303
Flags: W
LayerCount: 2
Fore
SplineSet
190.5 474.5 m 128,-1,1
 189 473 189 473 178 473 c 2,2,-1
 139 473 l 2,3,4
 128 473 128 473 126.5 474.5 c 128,-1,5
 125 476 125 476 125 487 c 2,6,-1
 125 690 l 2,7,8
 125 701 125 701 126.5 702.5 c 128,-1,9
 128 704 128 704 139 704 c 2,10,-1
 178 704 l 2,11,12
 189 704 189 704 190.5 702.5 c 128,-1,13
 192 701 192 701 192 690 c 2,14,-1
 192 487 l 2,15,0
 192 476 192 476 190.5 474.5 c 128,-1,1
EndSplineSet
EndChar

StartChar: parenleft
Encoding: 40 40 8
Width: 363
Flags: W
LayerCount: 2
Fore
SplineSet
310 -177 m 2,0,1
 303 -177 303 -177 301.5 -176.5 c 128,-1,2
 300 -176 300 -176 296 -171 c 0,3,4
 205 -57 205 -57 161 60 c 128,-1,5
 117 177 117 177 117 302 c 0,6,7
 117 426 117 426 161 543 c 128,-1,8
 205 660 205 660 296 775 c 0,9,10
 300 780 300 780 301.5 780.5 c 128,-1,11
 303 781 303 781 308 781 c 2,12,-1
 336 781 l 2,13,14
 342 781 342 781 342 780 c 128,-1,15
 342 779 342 779 339 774 c 0,16,17
 182 528 182 528 182 302 c 0,18,19
 182 187 182 187 222 70 c 128,-1,20
 262 -47 262 -47 340 -170 c 0,21,22
 345 -177 345 -177 335 -177 c 2,23,-1
 310 -177 l 2,0,1
EndSplineSet
EndChar

StartChar: parenright
Encoding: 41 41 9
Width: 363
Flags: W
LayerCount: 2
Fore
SplineSet
47 -177 m 2,0,1
 38 -177 38 -177 43 -170 c 0,2,3
 121 -47 121 -47 160.5 70 c 128,-1,4
 200 187 200 187 200 302 c 0,5,6
 200 416 200 416 161 533.5 c 128,-1,7
 122 651 122 651 44 774 c 0,8,9
 41 779 41 779 41 780 c 128,-1,10
 41 781 41 781 46 781 c 2,11,-1
 74 781 l 2,12,13
 79 781 79 781 80.5 780.5 c 128,-1,14
 82 780 82 780 87 775 c 0,15,16
 178 660 178 660 221.5 543 c 128,-1,17
 265 426 265 426 265 302 c 0,18,19
 265 177 265 177 221.5 60 c 128,-1,20
 178 -57 178 -57 87 -171 c 0,21,22
 82 -176 82 -176 80.5 -176.5 c 128,-1,23
 79 -177 79 -177 72 -177 c 2,24,-1
 47 -177 l 2,0,1
EndSplineSet
EndChar

StartChar: asterisk
Encoding: 42 42 10
Width: 606
Flags: W
LayerCount: 2
Fore
SplineSet
501 382 m 2,0,1
 505 371 505 371 503.5 368.5 c 128,-1,2
 502 366 502 366 490 362 c 2,3,-1
 348 321 l 1,4,5
 372 292 372 292 395.5 264 c 128,-1,6
 419 236 419 236 442 207 c 0,7,8
 448 199 448 199 448.5 196 c 128,-1,9
 449 193 449 193 441 187 c 2,10,-1
 409 163 l 2,11,12
 401 157 401 157 398.5 157 c 128,-1,13
 396 157 396 157 391 165 c 2,14,-1
 307 293 l 1,15,16
 287 263 287 263 265.5 231 c 128,-1,17
 244 199 244 199 225 168 c 0,18,19
 219 158 219 158 216.5 157.5 c 128,-1,20
 214 157 214 157 205 164 c 2,21,-1
 177 186 l 2,22,23
 168 193 168 193 167.5 195.5 c 128,-1,24
 167 198 167 198 175 208 c 2,25,-1
 265 321 l 1,26,-1
 121 362 l 2,27,28
 110 365 110 365 109 367.5 c 128,-1,29
 108 370 108 370 112 382 c 2,30,-1
 121 414 l 2,31,32
 124 425 124 425 126 426 c 128,-1,33
 128 427 128 427 139 423 c 2,34,-1
 283 368 l 1,35,36
 281 405 281 405 280 441 c 128,-1,37
 279 477 279 477 277 514 c 0,38,39
 276 528 276 528 278 529 c 128,-1,40
 280 530 280 530 292 530 c 2,41,-1
 321 530 l 2,42,43
 334 530 334 530 336 528 c 128,-1,44
 338 526 338 526 337 514 c 2,45,-1
 330 368 l 1,46,47
 365 382 365 382 400.5 395 c 128,-1,48
 436 408 436 408 471 422 c 0,49,50
 482 427 482 427 484.5 425.5 c 128,-1,51
 487 424 487 424 491 413 c 2,52,-1
 501 382 l 2,0,1
EndSplineSet
EndChar

StartChar: plus
Encoding: 43 43 11
Width: 654
Flags: W
LayerCount: 2
Fore
SplineSet
601 308 m 2,0,1
 601 294 601 294 598.5 292 c 128,-1,2
 596 290 596 290 582 290 c 2,3,-1
 366 290 l 1,4,-1
 366 74 l 2,5,6
 366 61 366 61 364 59 c 128,-1,7
 362 57 362 57 349 57 c 2,8,-1
 310 57 l 2,9,10
 297 57 297 57 295 59 c 128,-1,11
 293 61 293 61 293 74 c 2,12,-1
 293 290 l 1,13,-1
 78 290 l 2,14,15
 64 290 64 290 61.5 292 c 128,-1,16
 59 294 59 294 59 308 c 2,17,-1
 59 344 l 2,18,19
 59 358 59 358 61.5 360 c 128,-1,20
 64 362 64 362 78 362 c 2,21,-1
 293 362 l 1,22,-1
 293 576 l 2,23,24
 293 590 293 590 295.5 592 c 128,-1,25
 298 594 298 594 312 594 c 2,26,-1
 347 594 l 2,27,28
 361 594 361 594 363.5 592 c 128,-1,29
 366 590 366 590 366 576 c 2,30,-1
 366 362 l 1,31,-1
 582 362 l 2,32,33
 596 362 596 362 598.5 360 c 128,-1,34
 601 358 601 358 601 344 c 2,35,-1
 601 308 l 2,0,1
EndSplineSet
EndChar

StartChar: comma
Encoding: 44 44 12
Width: 303
Flags: W
LayerCount: 2
Fore
SplineSet
203 18 m 2,0,1
 216 18 216 18 216 13.5 c 128,-1,2
 216 9 216 9 214 3 c 2,3,-1
 148 -176 l 2,4,5
 144 -184 144 -184 140.5 -186.5 c 128,-1,6
 137 -189 137 -189 130 -189 c 2,7,-1
 88 -189 l 2,8,9
 75 -189 75 -189 78 -175 c 2,10,-1
 125 1 l 2,11,12
 127 7 127 7 131 12.5 c 128,-1,13
 135 18 135 18 146 18 c 2,14,-1
 203 18 l 2,0,1
EndSplineSet
EndChar

StartChar: hyphen
Encoding: 45 45 13
Width: 363
Flags: W
LayerCount: 2
Fore
SplineSet
316.5 376.5 m 128,-1,1
 318 375 318 375 318 364 c 2,2,-1
 318 320 l 2,3,4
 318 309 318 309 316.5 307.5 c 128,-1,5
 315 306 315 306 304 306 c 2,6,-1
 70 306 l 2,7,8
 59 306 59 306 57.5 307.5 c 128,-1,9
 56 309 56 309 56 320 c 2,10,-1
 56 364 l 2,11,12
 56 375 56 375 57.5 376.5 c 128,-1,13
 59 378 59 378 70 378 c 2,14,-1
 304 378 l 2,15,0
 315 378 315 378 316.5 376.5 c 128,-1,1
EndSplineSet
EndChar

StartChar: period
Encoding: 46 46 14
Width: 303
Flags: W
LayerCount: 2
Fore
SplineSet
108 -40 m 256,0,1
 108 -19 108 -19 122.5 -4.5 c 128,-1,2
 137 10 137 10 158 10 c 256,3,4
 179 10 179 10 193.5 -4.5 c 128,-1,5
 208 -19 208 -19 208 -40 c 256,6,7
 208 -61 208 -61 193.5 -75.5 c 128,-1,8
 179 -90 179 -90 158 -90 c 256,9,10
 137 -90 137 -90 122.5 -75.5 c 128,-1,11
 108 -61 108 -61 108 -40 c 256,0,1
EndSplineSet
EndChar

StartChar: slash
Encoding: 47 47 15
Width: 375
Flags: W
LayerCount: 2
Fore
SplineSet
360 718 m 2,0,1
 372 718 372 718 373.5 716 c 128,-1,2
 375 714 375 714 371 702 c 2,3,-1
 92 -104 l 2,4,5
 88 -114 88 -114 86 -115.5 c 128,-1,6
 84 -117 84 -117 73 -117 c 2,7,-1
 31 -117 l 2,8,9
 19 -117 19 -117 17.5 -115 c 128,-1,10
 16 -113 16 -113 20 -102 c 2,11,-1
 299 703 l 2,12,13
 303 714 303 714 305.5 716 c 128,-1,14
 308 718 308 718 321 718 c 2,15,-1
 360 718 l 2,0,1
EndSplineSet
EndChar

StartChar: zero
Encoding: 48 48 16
Width: 606
Flags: W
LayerCount: 2
Fore
SplineSet
479 327 m 0,0,1
 479 641 479 641 307 641 c 256,2,3
 135 641 135 641 135 327 c 0,4,5
 135 12 135 12 307 12 c 256,6,7
 479 12 479 12 479 327 c 0,0,1
551 327 m 0,8,9
 551 -51 551 -51 307 -51 c 0,10,11
 61 -51 61 -51 61 327 c 0,12,13
 61 484 61 484 109 582 c 0,14,15
 170 705 170 705 307 705 c 0,16,17
 442 705 442 705 504 582 c 0,18,19
 527 533 527 533 539 470 c 128,-1,20
 551 407 551 407 551 327 c 0,8,9
EndSplineSet
EndChar

StartChar: one
Encoding: 49 49 17
Width: 606
Flags: W
LayerCount: 2
Fore
SplineSet
369 -33 m 2,0,1
 369 -47 369 -47 355 -47 c 2,2,-1
 314 -47 l 2,3,4
 300 -47 300 -47 300 -33 c 2,5,-1
 300 617 l 1,6,7
 269 591 269 591 242 568 c 128,-1,8
 215 545 215 545 185 519 c 0,9,10
 174 510 174 510 165 521 c 2,11,-1
 145 545 l 2,12,13
 142 550 142 550 142 555.5 c 128,-1,14
 142 561 142 561 147 565 c 2,15,-1
 302 695 l 2,16,17
 306 699 306 699 314 699 c 2,18,-1
 341 699 l 2,19,20
 362 699 362 699 365.5 695.5 c 128,-1,21
 369 692 369 692 369 671 c 2,22,-1
 369 -33 l 2,0,1
EndSplineSet
EndChar

StartChar: two
Encoding: 50 50 18
Width: 606
Flags: W
LayerCount: 2
Fore
SplineSet
90 -47 m 2,0,1
 79 -47 79 -47 73.5 -46.5 c 128,-1,2
 68 -46 68 -46 65.5 -43.5 c 128,-1,3
 63 -41 63 -41 62.5 -35.5 c 128,-1,4
 62 -30 62 -30 62 -19 c 2,5,-1
 63 3 l 2,6,7
 63 16 63 16 71 24 c 2,8,-1
 236 206 l 2,9,10
 420 405 420 405 420 508 c 0,11,12
 420 568 420 568 380 608 c 0,13,14
 341 647 341 647 283 647 c 0,15,16
 202 647 202 647 114 602 c 0,17,18
 100 595 100 595 98 608 c 2,19,-1
 92 641 l 2,20,21
 89 658 89 658 102 662 c 0,22,23
 153 685 153 685 194 696 c 128,-1,24
 235 707 235 707 278 707 c 0,25,26
 374 707 374 707 431 659 c 0,27,28
 495 607 495 607 495 511 c 0,29,30
 495 474 495 474 477 430 c 128,-1,31
 459 386 459 386 427 338 c 0,32,33
 407 310 407 310 370.5 265 c 128,-1,34
 334 220 334 220 287 169 c 0,35,36
 252 131 252 131 217.5 92 c 128,-1,37
 183 53 183 53 148 15 c 1,38,-1
 498 15 l 2,39,40
 512 15 512 15 512 1 c 2,41,-1
 512 -33 l 2,42,43
 512 -47 512 -47 498 -47 c 2,44,-1
 90 -47 l 2,0,1
EndSplineSet
EndChar

StartChar: three
Encoding: 51 51 19
Width: 606
Flags: W
LayerCount: 2
Fore
SplineSet
77 -30 m 0,0,1
 62 -26 62 -26 64 -7 c 2,2,-1
 68 32 l 2,3,4
 70 44 70 44 84 38 c 0,5,6
 126 21 126 21 163.5 14 c 128,-1,7
 201 7 201 7 251 6 c 0,8,9
 330 5 330 5 384 46 c 1,10,11
 447 88 447 88 447 169 c 0,12,13
 447 311 447 311 234 311 c 2,14,-1
 182 311 l 2,15,16
 169 311 169 311 169 322 c 2,17,-1
 169 359 l 2,18,19
 169 372 169 372 182 372 c 2,20,-1
 187 372 l 2,21,22
 294 372 294 372 354 395 c 0,23,24
 445 430 445 430 445 521 c 0,25,26
 445 550 445 550 429.5 574.5 c 128,-1,27
 414 599 414 599 388 616 c 0,28,29
 364 630 364 630 334 638 c 128,-1,30
 304 646 304 646 271 646 c 0,31,32
 237 646 237 646 196 637 c 128,-1,33
 155 628 155 628 117 613 c 0,34,35
 104 608 104 608 102 621 c 2,36,-1
 98 658 l 2,37,38
 95 672 95 672 111 678 c 0,39,40
 156 693 156 693 195 700 c 128,-1,41
 234 707 234 707 278 707 c 0,42,43
 379 707 379 707 443 664 c 0,44,45
 516 615 516 615 516 521 c 0,46,47
 516 454 516 454 468 405 c 0,48,49
 428 362 428 362 364 342 c 1,50,51
 396 338 396 338 423.5 325 c 128,-1,52
 451 312 451 312 471 289 c 0,53,54
 494 264 494 264 506 232.5 c 128,-1,55
 518 201 518 201 518 163 c 0,56,57
 518 113 518 113 497.5 72.5 c 128,-1,58
 477 32 477 32 439 3 c 0,59,60
 402 -24 402 -24 354 -39.5 c 128,-1,61
 306 -55 306 -55 247 -54 c 0,62,63
 194 -53 194 -53 155.5 -48 c 128,-1,64
 117 -43 117 -43 77 -30 c 0,0,1
EndSplineSet
EndChar

StartChar: four
Encoding: 52 52 20
Width: 606
Flags: W
LayerCount: 2
Fore
SplineSet
392 190 m 1,0,-1
 392 636 l 1,1,2
 318 524 318 524 245 413 c 128,-1,3
 172 302 172 302 97 190 c 1,4,-1
 392 190 l 1,0,-1
460 -33 m 2,5,6
 460 -47 460 -47 446 -47 c 2,7,-1
 406 -47 l 2,8,9
 392 -47 392 -47 392 -33 c 2,10,-1
 392 129 l 1,11,-1
 62 129 l 2,12,13
 41 129 41 129 37.5 132.5 c 128,-1,14
 34 136 34 136 34 157 c 2,15,-1
 34 188 l 2,16,17
 34 197 34 197 35 200 c 128,-1,18
 36 203 36 203 41 211 c 2,19,-1
 360 687 l 2,20,21
 366 696 366 696 368.5 697.5 c 128,-1,22
 371 699 371 699 382 699 c 2,23,-1
 432 699 l 2,24,25
 453 699 453 699 456.5 695.5 c 128,-1,26
 460 692 460 692 460 671 c 2,27,-1
 460 190 l 1,28,-1
 559 190 l 2,29,30
 573 190 573 190 573 176 c 2,31,-1
 573 143 l 2,32,33
 573 129 573 129 559 129 c 2,34,-1
 460 129 l 1,35,-1
 460 -33 l 2,5,6
EndSplineSet
EndChar

StartChar: five
Encoding: 53 53 21
Width: 606
Flags: W
LayerCount: 2
Fore
SplineSet
115 -32 m 0,0,1
 101 -27 101 -27 101 -14 c 2,2,-1
 101 28 l 2,3,4
 101 45 101 45 115 38 c 0,5,6
 151 21 151 21 185.5 14 c 128,-1,7
 220 7 220 7 261 7 c 0,8,9
 349 7 349 7 404 50 c 0,10,11
 464 96 464 96 464 182 c 0,12,13
 464 351 464 351 271 351 c 0,14,15
 233 351 233 351 202.5 347 c 128,-1,16
 172 343 172 343 135 333 c 0,17,18
 124 330 124 330 117 335.5 c 128,-1,19
 110 341 110 341 110 352 c 2,20,-1
 116 671 l 2,21,22
 116 692 116 692 119.5 695.5 c 128,-1,23
 123 699 123 699 144 699 c 2,24,-1
 486 699 l 2,25,26
 500 699 500 699 500 685 c 2,27,-1
 500 652 l 2,28,29
 500 638 500 638 486 638 c 2,30,-1
 184 638 l 1,31,32
 183 575 183 575 181.5 515 c 128,-1,33
 180 455 180 455 179 392 c 1,34,35
 228 411 228 411 298 411 c 0,36,37
 403 411 403 411 468 354 c 0,38,39
 533 295 533 295 533 196 c 0,40,41
 533 75 533 75 458 9 c 0,42,43
 386 -54 386 -54 261 -54 c 0,44,45
 216 -54 216 -54 183 -49 c 128,-1,46
 150 -44 150 -44 115 -32 c 0,0,1
EndSplineSet
EndChar

StartChar: six
Encoding: 54 54 22
Width: 606
Flags: W
LayerCount: 2
Fore
SplineSet
481 188 m 0,0,1
 481 269 481 269 439 316 c 0,2,3
 397 364 397 364 319 364 c 0,4,5
 279 364 279 364 247 351.5 c 128,-1,6
 215 339 215 339 192.5 317 c 128,-1,7
 170 295 170 295 157.5 264 c 128,-1,8
 145 233 145 233 145 196 c 0,9,10
 145 120 145 120 187 68 c 0,11,12
 233 7 233 7 310 7 c 0,13,14
 389 7 389 7 437 60 c 0,15,16
 481 110 481 110 481 188 c 0,0,1
507 627 m 0,17,18
 484 635 484 635 454.5 640 c 128,-1,19
 425 645 425 645 396 645 c 0,20,21
 260 645 260 645 195 547 c 0,22,23
 140 465 140 465 138 322 c 1,24,25
 160 362 160 362 202 390 c 0,26,27
 254 427 254 427 319 427 c 0,28,29
 410 427 410 427 472 379 c 0,30,31
 551 318 551 318 551 193 c 0,32,33
 551 87 551 87 486 17 c 0,34,35
 420 -54 420 -54 308 -54 c 0,36,37
 68 -54 68 -54 68 300 c 0,38,39
 68 485 68 485 142 589 c 0,40,41
 229 707 229 707 404 707 c 0,42,43
 430 707 430 707 458.5 703 c 128,-1,44
 487 699 487 699 511 692 c 0,45,46
 526 689 526 689 524 674 c 2,47,-1
 522 637 l 2,48,49
 522 630 522 630 517 627.5 c 128,-1,50
 512 625 512 625 507 627 c 0,17,18
EndSplineSet
EndChar

StartChar: seven
Encoding: 55 55 23
Width: 606
Flags: W
LayerCount: 2
Fore
SplineSet
242 -33 m 2,0,1
 235 -47 235 -47 222 -47 c 2,2,-1
 172 -47 l 2,3,4
 166 -47 166 -47 163.5 -43 c 128,-1,5
 161 -39 161 -39 164 -33 c 2,6,-1
 455 638 l 1,7,-1
 84 638 l 2,8,9
 70 638 70 638 70 652 c 2,10,-1
 70 685 l 2,11,12
 70 699 70 699 84 699 c 2,13,-1
 499 699 l 2,14,15
 520 699 520 699 523.5 695.5 c 128,-1,16
 527 692 527 692 527 671 c 2,17,-1
 527 646 l 2,18,19
 527 638 527 638 524 632 c 2,20,-1
 242 -33 l 2,0,1
EndSplineSet
EndChar

StartChar: eight
Encoding: 56 56 24
Width: 606
Flags: W
LayerCount: 2
Fore
SplineSet
460 525 m 0,0,1
 460 582 460 582 410 615 c 0,2,3
 366 646 366 646 307 646 c 0,4,5
 243 646 243 646 199 614 c 0,6,7
 151 582 151 582 151 525 c 0,8,9
 151 473 151 473 201 431 c 0,10,11
 215 418 215 418 238.5 403 c 128,-1,12
 262 388 262 388 294 373 c 0,13,14
 302 369 302 369 307 369.5 c 128,-1,15
 312 370 312 370 322 375 c 0,16,17
 386 410 386 410 423 448.5 c 128,-1,18
 460 487 460 487 460 525 c 0,0,1
485 150 m 0,19,20
 485 205 485 205 435 246 c 0,21,22
 419 259 419 259 390 275 c 128,-1,23
 361 291 361 291 319 310 c 0,24,25
 306 317 306 317 290 310 c 0,26,27
 251 295 251 295 221 278.5 c 128,-1,28
 191 262 191 262 173 248 c 0,29,30
 153 228 153 228 140.5 201.5 c 128,-1,31
 128 175 128 175 128 145 c 0,32,33
 128 84 128 84 185 45 c 0,34,35
 237 6 237 6 307 6 c 0,36,37
 379 6 379 6 428 40 c 0,38,39
 485 79 485 79 485 150 c 0,19,20
555 145 m 0,40,41
 555 96 555 96 534.5 57 c 128,-1,42
 514 18 514 18 476 -8 c 0,43,44
 443 -30 443 -30 400 -42 c 128,-1,45
 357 -54 357 -54 307 -54 c 0,46,47
 258 -54 258 -54 215.5 -41 c 128,-1,48
 173 -28 173 -28 138 -5 c 0,49,50
 100 22 100 22 79 60.5 c 128,-1,51
 58 99 58 99 58 145 c 0,52,53
 58 223 58 223 110 272 c 0,54,55
 150 310 150 310 233 341 c 1,56,57
 81 416 81 416 81 533 c 0,58,59
 81 575 81 575 102 607.5 c 128,-1,60
 123 640 123 640 161 666 c 0,61,62
 193 686 193 686 229.5 696.5 c 128,-1,63
 266 707 266 707 307 707 c 0,64,65
 355 707 355 707 393 696.5 c 128,-1,66
 431 686 431 686 462 665 c 0,67,68
 531 617 531 617 531 533 c 0,69,70
 531 429 531 429 375 341 c 1,71,72
 416 326 416 326 448.5 308 c 128,-1,73
 481 290 481 290 501 272 c 0,74,75
 555 224 555 224 555 145 c 0,40,41
EndSplineSet
EndChar

StartChar: nine
Encoding: 57 57 25
Width: 606
Flags: W
LayerCount: 2
Fore
SplineSet
468 457 m 0,0,1
 468 535 468 535 426 588 c 0,2,3
 380 645 380 645 304 645 c 0,4,5
 223 645 223 645 177 594 c 0,6,7
 132 546 132 546 132 466 c 0,8,9
 132 381 132 381 173 334 c 1,10,-1
 172 334 l 1,11,12
 215 288 215 288 294 288 c 0,13,14
 376 288 376 288 422 334 c 0,15,16
 468 382 468 382 468 457 c 0,0,1
102 -40 m 0,17,18
 87 -37 87 -37 89 -17 c 2,19,-1
 92 18 l 2,20,21
 94 30 94 30 108 24 c 0,22,23
 133 14 133 14 158.5 10 c 128,-1,24
 184 6 184 6 216 6 c 0,25,26
 286 6 286 6 338 33.5 c 128,-1,27
 390 61 390 61 423 112 c 0,28,29
 473 196 473 196 475 325 c 1,30,31
 414 227 414 227 294 227 c 0,32,33
 202 227 202 227 140 274 c 0,34,35
 61 335 61 335 61 461 c 0,36,37
 61 572 61 572 126 638 c 0,38,39
 192 707 192 707 306 707 c 0,40,41
 546 707 546 707 546 353 c 0,42,43
 546 -54 546 -54 209 -54 c 0,44,45
 163 -54 163 -54 102 -40 c 0,17,18
EndSplineSet
EndChar

StartChar: colon
Encoding: 58 58 26
Width: 303
Flags: W
LayerCount: 2
Fore
SplineSet
101 551 m 256,0,1
 101 574 101 574 118 591 c 128,-1,2
 135 608 135 608 158 608 c 256,3,4
 181 608 181 608 198 591 c 128,-1,5
 215 574 215 574 215 551 c 256,6,7
 215 528 215 528 198 511 c 128,-1,8
 181 494 181 494 158 494 c 256,9,10
 135 494 135 494 118 511 c 128,-1,11
 101 528 101 528 101 551 c 256,0,1
101 100 m 256,12,13
 101 123 101 123 118 140 c 128,-1,14
 135 157 135 157 158 157 c 256,15,16
 181 157 181 157 198 140 c 128,-1,17
 215 123 215 123 215 100 c 256,18,19
 215 77 215 77 198 60 c 128,-1,20
 181 43 181 43 158 43 c 256,21,22
 135 43 135 43 118 60 c 128,-1,23
 101 77 101 77 101 100 c 256,12,13
EndSplineSet
EndChar

StartChar: semicolon
Encoding: 59 59 27
Width: 303
Flags: W
LayerCount: 2
Fore
SplineSet
101 551 m 256,0,1
 101 574 101 574 118 591 c 128,-1,2
 135 608 135 608 158 608 c 256,3,4
 181 608 181 608 198 591 c 128,-1,5
 215 574 215 574 215 551 c 256,6,7
 215 528 215 528 198 511 c 128,-1,8
 181 494 181 494 158 494 c 256,9,10
 135 494 135 494 118 511 c 128,-1,11
 101 528 101 528 101 551 c 256,0,1
198 138 m 2,12,13
 211 138 211 138 211 133.5 c 128,-1,14
 211 129 211 129 209 123 c 2,15,-1
 143 -56 l 2,16,17
 139 -64 139 -64 135.5 -66.5 c 128,-1,18
 132 -69 132 -69 125 -69 c 2,19,-1
 83 -69 l 2,20,21
 70 -69 70 -69 73 -55 c 2,22,-1
 120 121 l 2,23,24
 122 127 122 127 126 132.5 c 128,-1,25
 130 138 130 138 141 138 c 2,26,-1
 198 138 l 2,12,13
EndSplineSet
EndChar

StartChar: less
Encoding: 60 60 28
Width: 547
Flags: W
LayerCount: 2
Fore
SplineSet
499 -131 m 2,0,1
 499 -150 499 -150 497 -151 c 128,-1,2
 495 -152 495 -152 482 -139 c 2,3,-1
 96 249 l 2,4,5
 90 255 90 255 86.5 259 c 128,-1,6
 83 263 83 263 81.5 266.5 c 128,-1,7
 80 270 80 270 79.5 275 c 128,-1,8
 79 280 79 280 79 288 c 2,9,-1
 79 314 l 2,10,11
 79 322 79 322 79.5 327 c 128,-1,12
 80 332 80 332 81.5 335.5 c 128,-1,13
 83 339 83 339 86.5 343 c 128,-1,14
 90 347 90 347 96 353 c 2,15,-1
 478 741 l 2,16,17
 494 757 494 757 496.5 756 c 128,-1,18
 499 755 499 755 499 732 c 2,19,-1
 499 694 l 2,20,21
 499 684 499 684 498.5 678 c 128,-1,22
 498 672 498 672 496.5 668 c 128,-1,23
 495 664 495 664 491.5 660 c 128,-1,24
 488 656 488 656 481 649 c 2,25,-1
 153 316 l 2,26,27
 142 305 142 305 141.5 301.5 c 128,-1,28
 141 298 141 298 151 288 c 0,29,30
 190 249 190 249 232 206.5 c 128,-1,31
 274 164 274 164 317 120.5 c 128,-1,32
 360 77 360 77 402.5 34 c 128,-1,33
 445 -9 445 -9 484 -48 c 0,34,35
 495 -60 495 -60 497 -65 c 128,-1,36
 499 -70 499 -70 499 -88 c 2,37,-1
 499 -131 l 2,0,1
EndSplineSet
EndChar

StartChar: equal
Encoding: 61 61 29
Width: 654
Flags: W
LayerCount: 2
Fore
SplineSet
599.5 466.5 m 128,-1,1
 601 465 601 465 601 454 c 2,2,-1
 601 409 l 2,3,4
 601 398 601 398 599.5 396.5 c 128,-1,5
 598 395 598 395 587 395 c 2,6,-1
 73 395 l 2,7,8
 62 395 62 395 60.5 396.5 c 128,-1,9
 59 398 59 398 59 409 c 2,10,-1
 59 454 l 2,11,12
 59 465 59 465 60.5 466.5 c 128,-1,13
 62 468 62 468 73 468 c 2,14,-1
 587 468 l 2,15,0
 598 468 598 468 599.5 466.5 c 128,-1,1
599.5 252.5 m 128,-1,17
 601 251 601 251 601 240 c 2,18,-1
 601 197 l 2,19,20
 601 186 601 186 599.5 184.5 c 128,-1,21
 598 183 598 183 587 183 c 2,22,-1
 73 183 l 2,23,24
 62 183 62 183 60.5 184.5 c 128,-1,25
 59 186 59 186 59 197 c 2,26,-1
 59 240 l 2,27,28
 59 251 59 251 60.5 252.5 c 128,-1,29
 62 254 62 254 73 254 c 2,30,-1
 587 254 l 2,31,16
 598 254 598 254 599.5 252.5 c 128,-1,17
EndSplineSet
EndChar

StartChar: greater
Encoding: 62 62 30
Width: 547
Flags: W
LayerCount: 2
Fore
SplineSet
55 -90 m 2,0,1
 55 -81 55 -81 55 -76 c 128,-1,2
 55 -71 55 -71 56.5 -67 c 128,-1,3
 58 -63 58 -63 61.5 -59 c 128,-1,4
 65 -55 65 -55 71 -49 c 0,5,6
 110 -10 110 -10 152.5 33 c 128,-1,7
 195 76 195 76 238 119.5 c 128,-1,8
 281 163 281 163 323.5 206 c 128,-1,9
 366 249 366 249 405 288 c 0,10,11
 414 298 414 298 414 301.5 c 128,-1,12
 414 305 414 305 403 316 c 2,13,-1
 73 650 l 2,14,15
 66 657 66 657 62.5 661 c 128,-1,16
 59 665 59 665 57.5 669 c 128,-1,17
 56 673 56 673 55.5 679 c 128,-1,18
 55 685 55 685 55 695 c 2,19,-1
 55 734 l 2,20,21
 55 757 55 757 57.5 758 c 128,-1,22
 60 759 60 759 75 743 c 2,23,-1
 460 353 l 2,24,25
 466 347 466 347 469.5 343 c 128,-1,26
 473 339 473 339 474.5 335.5 c 128,-1,27
 476 332 476 332 476.5 327 c 128,-1,28
 477 322 477 322 477 314 c 2,29,-1
 477 288 l 2,30,31
 477 280 477 280 476.5 275 c 128,-1,32
 476 270 476 270 474.5 266.5 c 128,-1,33
 473 263 473 263 469.5 259 c 128,-1,34
 466 255 466 255 460 249 c 2,35,-1
 72 -141 l 2,36,37
 59 -154 59 -154 57 -153 c 128,-1,38
 55 -152 55 -152 55 -133 c 2,39,-1
 55 -90 l 2,0,1
EndSplineSet
EndChar

StartChar: question
Encoding: 63 63 31
Width: 545
Flags: W
LayerCount: 2
Fore
SplineSet
463 520 m 0,0,1
 463 461 463 461 435 413 c 0,2,3
 427 399 427 399 410.5 379 c 128,-1,4
 394 359 394 359 371 334 c 0,5,6
 348 310 348 310 332 289.5 c 128,-1,7
 316 269 316 269 306 252 c 0,8,9
 279 205 279 205 279 151 c 0,10,11
 279 140 279 140 277.5 138 c 128,-1,12
 276 136 276 136 266 136 c 2,13,-1
 225 136 l 2,14,15
 215 136 215 136 213.5 137.5 c 128,-1,16
 212 139 212 139 212 150 c 0,17,18
 212 215 212 215 240 265 c 0,19,20
 249 281 249 281 264 300.5 c 128,-1,21
 279 320 279 320 302 343 c 0,22,23
 325 367 325 367 340.5 387.5 c 128,-1,24
 356 408 356 408 366 425 c 0,25,26
 390 467 390 467 390 520 c 0,27,28
 390 580 390 580 352 613.5 c 128,-1,29
 314 647 314 647 254 647 c 0,30,31
 228 647 228 647 194.5 641.5 c 128,-1,32
 161 636 161 636 119 622 c 0,33,34
 103 617 103 617 103 631 c 2,35,-1
 102 672 l 2,36,37
 102 686 102 686 115 689 c 0,38,39
 155 699 155 699 190.5 704.5 c 128,-1,40
 226 710 226 710 258 710 c 0,41,42
 347 710 347 710 401 665 c 0,43,44
 463 615 463 615 463 520 c 0,0,1
213 34.5 m 128,-1,46
 227 49 227 49 247 49 c 256,47,48
 267 49 267 49 281.5 34.5 c 128,-1,49
 296 20 296 20 296 0 c 256,50,51
 296 -20 296 -20 281.5 -34 c 128,-1,52
 267 -48 267 -48 247 -48 c 256,53,54
 227 -48 227 -48 213 -34 c 128,-1,55
 199 -20 199 -20 199 0 c 256,56,45
 199 20 199 20 213 34.5 c 128,-1,46
EndSplineSet
EndChar

StartChar: at
Encoding: 64 64 32
Width: 872
Flags: W
LayerCount: 2
Fore
SplineSet
546 387 m 0,0,1
 546 434 546 434 519 463 c 1,2,-1
 519 462 l 1,3,4
 494 482 494 482 460 482 c 0,5,6
 403 482 403 482 351 422 c 0,7,8
 293 353 293 353 294 264 c 0,9,10
 295 216 295 216 315.5 189 c 128,-1,11
 336 162 336 162 371 162 c 256,12,13
 406 162 406 162 439 183 c 128,-1,14
 472 204 472 204 498 241 c 0,15,16
 521 276 521 276 533.5 313.5 c 128,-1,17
 546 351 546 351 546 387 c 0,0,1
817 391 m 0,18,19
 817 266 817 266 729 177 c 0,20,21
 655 99 655 99 576 99 c 0,22,23
 501 99 501 99 492 166 c 1,24,25
 464 134 464 134 430 116.5 c 128,-1,26
 396 99 396 99 357 99 c 0,27,28
 295 99 295 99 254 145 c 0,29,30
 213 192 213 192 213 258 c 0,31,32
 213 369 213 369 282 453 c 0,33,34
 353 545 353 545 460 545 c 0,35,36
 540 545 540 545 578 462 c 1,37,38
 583 477 583 477 589.5 494.5 c 128,-1,39
 596 512 596 512 601 527 c 1,40,-1
 669 527 l 1,41,-1
 576 239 l 2,42,43
 566 209 566 209 566 189 c 0,44,45
 566 162 566 162 590 162 c 0,46,47
 652 162 652 162 697 230 c 0,48,49
 746 298 746 298 746 391 c 0,50,51
 746 507 746 507 653 580 c 0,52,53
 563 647 563 647 438 647 c 0,54,55
 303 647 303 647 211 557 c 0,56,57
 122 466 122 466 122 329 c 0,58,59
 122 188 122 188 211 97 c 0,60,61
 303 7 303 7 438 7 c 0,62,63
 622 7 622 7 720 125 c 1,64,-1
 785 125 l 1,65,66
 733 39 733 39 642.5 -8.5 c 128,-1,67
 552 -56 552 -56 438 -56 c 0,68,69
 350 -56 350 -56 277 -24.5 c 128,-1,70
 204 7 204 7 150 65 c 0,71,72
 102 119 102 119 77 186 c 128,-1,73
 52 253 52 253 52 327 c 0,74,75
 52 481 52 481 150 591 c 0,76,77
 257 710 257 710 438 710 c 0,78,79
 513 710 513 710 578.5 689.5 c 128,-1,80
 644 669 644 669 697 628 c 0,81,82
 754 584 754 584 785.5 523.5 c 128,-1,83
 817 463 817 463 817 391 c 0,18,19
EndSplineSet
EndChar

StartChar: A
Encoding: 65 65 33
Width: 727
Flags: W
LayerCount: 2
Fore
SplineSet
529 219 m 1,0,1
 487 323 487 323 448.5 424.5 c 128,-1,2
 410 526 410 526 368 630 c 1,3,4
 326 526 326 526 285.5 424.5 c 128,-1,5
 245 323 245 323 203 219 c 1,6,-1
 529 219 l 1,0,1
703 -29 m 2,7,8
 708 -43 708 -43 694 -43 c 2,9,-1
 646 -43 l 2,10,11
 640 -43 640 -43 635.5 -41 c 128,-1,12
 631 -39 631 -39 627 -29 c 2,13,-1
 553 155 l 1,14,-1
 177 155 l 1,15,16
 158 108 158 108 140 63 c 128,-1,17
 122 18 122 18 104 -29 c 0,18,19
 100 -39 100 -39 95.5 -41 c 128,-1,20
 91 -43 91 -43 85 -43 c 2,21,-1
 38 -43 l 2,22,23
 24 -43 24 -43 29 -29 c 2,24,-1
 323 687 l 2,25,26
 328 699 328 699 341 699 c 2,27,-1
 402 699 l 2,28,29
 415 699 415 699 420 687 c 2,30,-1
 703 -29 l 2,7,8
EndSplineSet
EndChar

StartChar: B
Encoding: 66 66 34
Width: 606
Flags: W
LayerCount: 2
Fore
SplineSet
479 231 m 0,0,1
 480 273 480 273 471.5 313 c 128,-1,2
 463 353 463 353 444 385 c 128,-1,3
 425 417 425 417 393.5 436.5 c 128,-1,4
 362 456 362 456 316 456 c 0,5,6
 275 456 275 456 244.5 438.5 c 128,-1,7
 214 421 214 421 194 390 c 128,-1,8
 174 359 174 359 164 318 c 128,-1,9
 154 277 154 277 154 231 c 0,10,11
 154 186 154 186 166.5 144.5 c 128,-1,12
 179 103 179 103 200.5 72 c 128,-1,13
 222 41 222 41 251.5 22.5 c 128,-1,14
 281 4 281 4 316 4 c 0,15,16
 362 4 362 4 393.5 23.5 c 128,-1,17
 425 43 425 43 444 75 c 128,-1,18
 463 107 463 107 471.5 148 c 128,-1,19
 480 189 480 189 479 231 c 0,0,1
87 742 m 2,20,21
 87 756 87 756 101 756 c 2,22,-1
 140 756 l 2,23,24
 154 756 154 756 154 742 c 2,25,-1
 154 423 l 1,26,27
 179 464 179 464 225 488.5 c 128,-1,28
 271 513 271 513 328 513 c 0,29,30
 551 513 551 513 551 231 c 0,31,32
 552 175 552 175 539.5 123.5 c 128,-1,33
 527 72 527 72 499 33 c 128,-1,34
 471 -6 471 -6 428.5 -29.5 c 128,-1,35
 386 -53 386 -53 328 -53 c 0,36,37
 208 -53 208 -53 154 49 c 1,38,-1
 154 -29 l 2,39,40
 154 -43 154 -43 140 -43 c 2,41,-1
 101 -43 l 2,42,43
 87 -43 87 -43 87 -29 c 2,44,-1
 87 742 l 2,20,21
EndSplineSet
EndChar

StartChar: C
Encoding: 67 67 35
Width: 484
Flags: W
LayerCount: 2
Fore
SplineSet
440 -47 m 0,0,1
 410 -52 410 -52 382 -54 c 128,-1,2
 354 -56 354 -56 315 -56 c 0,3,4
 253 -56 253 -56 204.5 -34 c 128,-1,5
 156 -12 156 -12 122.5 26 c 128,-1,6
 89 64 89 64 71 116 c 128,-1,7
 53 168 53 168 53 228 c 0,8,9
 53 289 53 289 72 340.5 c 128,-1,10
 91 392 91 392 126.5 429.5 c 128,-1,11
 162 467 162 467 211.5 488.5 c 128,-1,12
 261 510 261 510 323 510 c 0,13,14
 356 510 356 510 383 507.5 c 128,-1,15
 410 505 410 505 441 498 c 0,16,17
 455 494 455 494 454 479 c 2,18,-1
 451 447 l 2,19,20
 449 435 449 435 436 438 c 0,21,22
 410 446 410 446 386 449.5 c 128,-1,23
 362 453 362 453 333 453 c 0,24,25
 282 453 282 453 243.5 436.5 c 128,-1,26
 205 420 205 420 179 390 c 128,-1,27
 153 360 153 360 140 318.5 c 128,-1,28
 127 277 127 277 127 228 c 0,29,30
 127 183 127 183 140.5 142 c 128,-1,31
 154 101 154 101 179.5 69.5 c 128,-1,32
 205 38 205 38 241.5 19.5 c 128,-1,33
 278 1 278 1 325 1 c 0,34,35
 360 1 360 1 383 4 c 128,-1,36
 406 7 406 7 435 15 c 0,37,38
 450 19 450 19 451 8 c 2,39,-1
 454 -29 l 2,40,41
 455 -44 455 -44 440 -47 c 0,0,1
EndSplineSet
EndChar

StartChar: D
Encoding: 68 68 36
Width: 606
Flags: W
LayerCount: 2
Fore
SplineSet
137 228 m 0,0,1
 137 181 137 181 144.5 142.5 c 128,-1,2
 152 104 152 104 168 75 c 0,3,4
 190 39 190 39 221.5 20 c 128,-1,5
 253 1 253 1 297 1 c 0,6,7
 337 1 337 1 367.5 22 c 128,-1,8
 398 43 398 43 418.5 75.5 c 128,-1,9
 439 108 439 108 449 148.5 c 128,-1,10
 459 189 459 189 459 228 c 0,11,12
 459 276 459 276 448.5 317 c 128,-1,13
 438 358 438 358 417.5 388 c 128,-1,14
 397 418 397 418 367 435 c 128,-1,15
 337 452 337 452 297 452 c 0,16,17
 212 452 212 452 168 379 c 0,18,19
 152 350 152 350 144.5 311.5 c 128,-1,20
 137 273 137 273 137 228 c 0,0,1
526 -29 m 2,21,22
 526 -43 526 -43 512 -43 c 2,23,-1
 473 -43 l 2,24,25
 459 -43 459 -43 459 -29 c 2,26,-1
 459 46 l 1,27,28
 405 -56 405 -56 285 -56 c 0,29,30
 178 -56 178 -56 118 26 c 0,31,32
 63 102 63 102 63 228 c 0,33,34
 63 509 63 509 285 509 c 0,35,36
 345 509 345 509 391.5 485 c 128,-1,37
 438 461 438 461 459 423 c 1,38,-1
 459 738 l 2,39,40
 459 752 459 752 473 752 c 2,41,-1
 512 752 l 2,42,43
 526 752 526 752 526 738 c 2,44,-1
 526 -29 l 2,21,22
EndSplineSet
EndChar

StartChar: E
Encoding: 69 69 37
Width: 748
Flags: W
LayerCount: 2
Fore
SplineSet
698 131 m 1,0,-1
 50 131 l 1,1,-1
 50 171 l 1,2,-1
 698 171 l 1,3,-1
 698 131 l 1,0,-1
698 292 m 1,4,-1
 50 292 l 1,5,-1
 50 332 l 1,6,-1
 698 332 l 1,7,-1
 698 292 l 1,4,-1
698 453 m 1,8,-1
 50 453 l 1,9,-1
 50 492 l 1,10,-1
 698 492 l 1,11,-1
 698 453 l 1,8,-1
EndSplineSet
EndChar

StartChar: F
Encoding: 70 70 38
Width: 940
Flags: W
LayerCount: 2
Fore
SplineSet
920 300 m 1,0,-1
 739 137 l 1,1,-1
 812 288 l 1,2,-1
 20 288 l 1,3,-1
 20 312 l 1,4,-1
 812 312 l 1,5,-1
 739 463 l 1,6,-1
 920 300 l 1,0,-1
EndSplineSet
EndChar

StartChar: G
Encoding: 71 71 39
Width: 606
Flags: W
LayerCount: 2
Fore
SplineSet
461 230 m 0,0,1
 461 337 461 337 417 395 c 128,-1,2
 373 453 373 453 298 453 c 0,3,4
 217 453 217 453 176 399 c 128,-1,5
 135 345 135 345 135 228 c 0,6,7
 135 185 135 185 147 149 c 128,-1,8
 159 113 159 113 180 87.5 c 128,-1,9
 201 62 201 62 230 47.5 c 128,-1,10
 259 33 259 33 293 33 c 0,11,12
 328 33 328 33 359 47.5 c 128,-1,13
 390 62 390 62 412.5 88.5 c 128,-1,14
 435 115 435 115 448 151 c 128,-1,15
 461 187 461 187 461 230 c 0,0,1
117 -174 m 0,16,17
 105 -171 105 -171 107 -159 c 2,18,-1
 110 -115 l 2,19,20
 110 -102 110 -102 123 -109 c 0,21,22
 161 -126 161 -126 196 -133.5 c 128,-1,23
 231 -141 231 -141 272 -141 c 0,24,25
 363 -141 363 -141 408.5 -85.5 c 128,-1,26
 454 -30 454 -30 460 66 c 1,27,28
 437 21 437 21 392 -2 c 128,-1,29
 347 -25 347 -25 292 -25 c 0,30,31
 243 -25 243 -25 201 -7 c 128,-1,32
 159 11 159 11 128 44 c 128,-1,33
 97 77 97 77 79 124 c 128,-1,34
 61 171 61 171 61 228 c 0,35,36
 61 295 61 295 73.5 347.5 c 128,-1,37
 86 400 86 400 113 436 c 128,-1,38
 140 472 140 472 183 491 c 128,-1,39
 226 510 226 510 287 510 c 0,40,41
 340 510 340 510 380.5 492.5 c 128,-1,42
 421 475 421 475 463 430 c 1,43,-1
 461 484 l 2,44,45
 461 498 461 498 475 498 c 2,46,-1
 513 498 l 2,47,48
 527 498 527 498 527 484 c 2,49,-1
 527 84 l 2,50,51
 527 19 527 19 510.5 -33.5 c 128,-1,52
 494 -86 494 -86 461.5 -122.5 c 128,-1,53
 429 -159 429 -159 381 -178.5 c 128,-1,54
 333 -198 333 -198 271 -198 c 0,55,56
 226 -198 226 -198 192 -192.5 c 128,-1,57
 158 -187 158 -187 117 -174 c 0,16,17
EndSplineSet
EndChar

StartChar: H
Encoding: 72 72 40
Width: 727
Flags: W
LayerCount: 2
Fore
SplineSet
628 -29 m 2,0,1
 628 -43 628 -43 614 -43 c 2,2,-1
 569 -43 l 2,3,4
 555 -43 555 -43 555 -29 c 2,5,-1
 555 308 l 1,6,-1
 176 308 l 1,7,-1
 176 -29 l 2,8,9
 176 -43 176 -43 162 -43 c 2,10,-1
 117 -43 l 2,11,12
 103 -43 103 -43 103 -29 c 2,13,-1
 103 685 l 2,14,15
 103 699 103 699 117 699 c 2,16,-1
 162 699 l 2,17,18
 176 699 176 699 176 685 c 2,19,-1
 176 371 l 1,20,-1
 555 371 l 1,21,-1
 555 685 l 2,22,23
 555 699 555 699 569 699 c 2,24,-1
 614 699 l 2,25,26
 628 699 628 699 628 685 c 2,27,-1
 628 -29 l 2,0,1
EndSplineSet
EndChar

StartChar: I
Encoding: 73 73 41
Width: 647
Flags: W
LayerCount: 2
Fore
SplineSet
617 190 m 1,0,-1
 314 190 l 1,1,-1
 262 -17 l 1,2,-1
 214 -6 l 1,3,-1
 263 190 l 1,4,-1
 30 190 l 1,5,-1
 30 242 l 1,6,-1
 277 242 l 1,7,-1
 312 382 l 1,8,-1
 30 382 l 1,9,-1
 30 434 l 1,10,-1
 326 434 l 1,11,-1
 377 636 l 1,12,-1
 425 625 l 1,13,-1
 377 434 l 1,14,-1
 617 434 l 1,15,-1
 617 382 l 1,16,-1
 363 382 l 1,17,-1
 328 242 l 1,18,-1
 617 242 l 1,19,-1
 617 190 l 1,0,-1
EndSplineSet
EndChar

StartChar: J
Encoding: 74 74 42
Width: 269
Flags: W
LayerCount: 2
Fore
SplineSet
23 -195 m 0,0,1
 9 -194 9 -194 9 -176 c 2,2,-1
 9 -148 l 2,3,4
 9 -136 9 -136 23 -139 c 0,5,6
 27 -140 27 -140 34.5 -140.5 c 128,-1,7
 42 -141 42 -141 48 -141 c 0,8,9
 72 -141 72 -141 88 -132.5 c 128,-1,10
 104 -124 104 -124 113 -110 c 0,11,12
 124 -88 124 -88 124 -38 c 2,13,-1
 124 484 l 2,14,15
 124 498 124 498 138 498 c 2,16,-1
 178 498 l 2,17,18
 192 498 192 498 192 484 c 2,19,-1
 192 -45 l 2,20,21
 192 -198 192 -198 67 -198 c 0,22,23
 53 -198 53 -198 43.5 -197.5 c 128,-1,24
 34 -197 34 -197 23 -195 c 0,0,1
109 687 m 256,25,26
 109 707 109 707 123 721.5 c 128,-1,27
 137 736 137 736 157 736 c 256,28,29
 177 736 177 736 191.5 721.5 c 128,-1,30
 206 707 206 707 206 687 c 256,31,32
 206 667 206 667 191.5 653 c 128,-1,33
 177 639 177 639 157 639 c 256,34,35
 137 639 137 639 123 653 c 128,-1,36
 109 667 109 667 109 687 c 256,25,26
EndSplineSet
EndChar

StartChar: K
Encoding: 75 75 43
Width: 940
Flags: W
LayerCount: 2
Fore
SplineSet
786 193 m 1,0,1
 775 178 775 178 758 164 c 128,-1,2
 741 150 741 150 719.5 140 c 128,-1,3
 698 130 698 130 673.5 124 c 128,-1,4
 649 118 649 118 624 118 c 0,5,6
 583 118 583 118 544 124 c 128,-1,7
 505 130 505 130 470 144 c 0,8,9
 456 150 456 150 435.5 156 c 128,-1,10
 415 162 415 162 393 167 c 128,-1,11
 371 172 371 172 350.5 175.5 c 128,-1,12
 330 179 330 179 315 179 c 0,13,14
 295 179 295 179 274.5 175.5 c 128,-1,15
 254 172 254 172 235.5 165.5 c 128,-1,16
 217 159 217 159 201 149.5 c 128,-1,17
 185 140 185 140 175 128 c 1,18,-1
 153 147 l 1,19,20
 164 162 164 162 181 176 c 128,-1,21
 198 190 198 190 219.5 200 c 128,-1,22
 241 210 241 210 265 216 c 128,-1,23
 289 222 289 222 315 222 c 0,24,25
 356 222 356 222 395.5 215.5 c 128,-1,26
 435 209 435 209 470 195 c 0,27,28
 510 179 510 179 552 170 c 128,-1,29
 594 161 594 161 624 161 c 0,30,31
 643 161 643 161 664 164.5 c 128,-1,32
 685 168 685 168 703.5 174.5 c 128,-1,33
 722 181 722 181 738 190.5 c 128,-1,34
 754 200 754 200 764 212 c 1,35,-1
 786 193 l 1,0,1
786 441 m 1,36,37
 775 426 775 426 758 412 c 128,-1,38
 741 398 741 398 719.5 388 c 128,-1,39
 698 378 698 378 673.5 372 c 128,-1,40
 649 366 649 366 624 366 c 0,41,42
 583 366 583 366 544 372 c 128,-1,43
 505 378 505 378 470 392 c 0,44,45
 456 398 456 398 435.5 404 c 128,-1,46
 415 410 415 410 393 415 c 128,-1,47
 371 420 371 420 350.5 423.5 c 128,-1,48
 330 427 330 427 315 427 c 0,49,50
 295 427 295 427 274.5 423.5 c 128,-1,51
 254 420 254 420 235.5 413.5 c 128,-1,52
 217 407 217 407 201 397.5 c 128,-1,53
 185 388 185 388 175 376 c 1,54,-1
 153 395 l 1,55,56
 164 410 164 410 181 424 c 128,-1,57
 198 438 198 438 219.5 448 c 128,-1,58
 241 458 241 458 265 464 c 128,-1,59
 289 470 289 470 315 470 c 0,60,61
 356 470 356 470 395.5 463.5 c 128,-1,62
 435 457 435 457 470 443 c 0,63,64
 510 427 510 427 552 418 c 128,-1,65
 594 409 594 409 624 409 c 0,66,67
 643 409 643 409 664 412.5 c 128,-1,68
 685 416 685 416 703.5 422.5 c 128,-1,69
 722 429 722 429 738 438.5 c 128,-1,70
 754 448 754 448 764 460 c 1,71,-1
 786 441 l 1,36,37
EndSplineSet
EndChar

StartChar: L
Encoding: 76 76 44
Width: 484
Flags: W
LayerCount: 2
Fore
SplineSet
455 20 m 2,0,1
 469 20 469 20 469 6 c 2,2,-1
 469 -29 l 2,3,4
 469 -43 469 -43 455 -43 c 2,5,-1
 131 -43 l 2,6,7
 117 -43 117 -43 109.5 -42.5 c 128,-1,8
 102 -42 102 -42 98.5 -38.5 c 128,-1,9
 95 -35 95 -35 94.5 -27 c 128,-1,10
 94 -19 94 -19 94 -5 c 2,11,-1
 94 683 l 2,12,13
 94 697 94 697 108 697 c 2,14,-1
 154 697 l 2,15,16
 168 697 168 697 168 683 c 2,17,-1
 168 20 l 1,18,-1
 455 20 l 2,0,1
EndSplineSet
EndChar

StartChar: M
Encoding: 77 77 45
Width: 672
Flags: W
LayerCount: 2
Fore
SplineSet
642 -37 m 1,0,-1
 30 -37 l 1,1,-1
 30 0 l 1,2,-1
 642 0 l 1,3,-1
 642 -37 l 1,0,-1
631 347 m 1,4,-1
 63 41 l 1,5,-1
 44 76 l 1,6,-1
 574 361 l 1,7,-1
 44 632 l 1,8,-1
 62 665 l 1,9,-1
 631 376 l 1,10,-1
 631 347 l 1,4,-1
EndSplineSet
EndChar

StartChar: N
Encoding: 78 78 46
Width: 606
Flags: W
LayerCount: 2
Fore
SplineSet
521 -29 m 2,0,1
 521 -43 521 -43 507 -43 c 2,2,-1
 467 -43 l 2,3,4
 453 -43 453 -43 453 -29 c 2,5,-1
 453 286 l 2,6,7
 453 378 453 378 420 416.5 c 128,-1,8
 387 455 387 455 327 455 c 0,9,10
 246 455 246 455 203.5 410 c 128,-1,11
 161 365 161 365 161 284 c 2,12,-1
 161 -29 l 2,13,14
 161 -43 161 -43 147 -43 c 2,15,-1
 107 -43 l 2,16,17
 93 -43 93 -43 93 -29 c 2,18,-1
 93 371 l 2,19,20
 93 414 93 414 92.5 438 c 128,-1,21
 92 462 92 462 90 484 c 0,22,23
 89 491 89 491 93.5 494.5 c 128,-1,24
 98 498 98 498 104 498 c 2,25,-1
 140 498 l 2,26,27
 154 498 154 498 154 484 c 2,28,-1
 154 429 l 1,29,30
 182 472 182 472 221.5 492 c 128,-1,31
 261 512 261 512 330 512 c 0,32,33
 425 512 425 512 473 457 c 128,-1,34
 521 402 521 402 521 302 c 2,35,-1
 521 -29 l 2,0,1
EndSplineSet
EndChar

StartChar: O
Encoding: 79 79 47
Width: 672
Flags: W
LayerCount: 2
Fore
SplineSet
642 -37 m 1,0,-1
 30 -37 l 1,1,-1
 30 0 l 1,2,-1
 642 0 l 1,3,-1
 642 -37 l 1,0,-1
628 76 m 1,4,-1
 609 41 l 1,5,-1
 41 347 l 1,6,-1
 41 376 l 1,7,-1
 610 665 l 1,8,-1
 628 632 l 1,9,-1
 98 361 l 1,10,-1
 628 76 l 1,4,-1
EndSplineSet
EndChar

StartChar: P
Encoding: 80 80 48
Width: 940
Flags: W
LayerCount: 2
Fore
SplineSet
920 288 m 1,0,-1
 128 288 l 1,1,-1
 201 137 l 1,2,-1
 20 300 l 1,3,-1
 201 463 l 1,4,-1
 128 312 l 1,5,-1
 920 312 l 1,6,-1
 920 288 l 1,0,-1
EndSplineSet
EndChar

StartChar: Q
Encoding: 81 81 49
Width: 606
Flags: W
LayerCount: 2
Fore
SplineSet
141 235 m 0,0,1
 141 181 141 181 151.5 138 c 128,-1,2
 162 95 162 95 182 64 c 128,-1,3
 202 33 202 33 231.5 16.5 c 128,-1,4
 261 0 261 0 299 0 c 0,5,6
 373 0 373 0 416.5 59.5 c 128,-1,7
 460 119 460 119 460 235 c 0,8,9
 460 280 460 280 450 319 c 128,-1,10
 440 358 440 358 420 387 c 128,-1,11
 400 416 400 416 370 433 c 128,-1,12
 340 450 340 450 299 450 c 0,13,14
 254 450 254 450 224 432 c 128,-1,15
 194 414 194 414 175.5 384 c 128,-1,16
 157 354 157 354 149 315 c 128,-1,17
 141 276 141 276 141 235 c 0,0,1
527 -182 m 2,18,19
 527 -188 527 -188 522.5 -192 c 128,-1,20
 518 -196 518 -196 512 -196 c 2,21,-1
 474 -196 l 2,22,23
 460 -196 460 -196 460 -182 c 2,24,-1
 460 33 l 1,25,26
 437 -9 437 -9 393 -33 c 128,-1,27
 349 -57 349 -57 287 -57 c 0,28,29
 234 -57 234 -57 193 -34.5 c 128,-1,30
 152 -12 152 -12 124 27 c 128,-1,31
 96 66 96 66 82 119.5 c 128,-1,32
 68 173 68 173 68 235 c 0,33,34
 68 293 68 293 80.5 342.5 c 128,-1,35
 93 392 93 392 119 428.5 c 128,-1,36
 145 465 145 465 186.5 486 c 128,-1,37
 228 507 228 507 287 507 c 0,38,39
 350 507 350 507 398 480 c 128,-1,40
 446 453 446 453 466 409 c 1,41,-1
 461 484 l 2,42,43
 461 498 461 498 475 498 c 2,44,-1
 513 498 l 2,45,46
 527 498 527 498 527 484 c 2,47,-1
 527 -182 l 2,18,19
EndSplineSet
EndChar

StartChar: R
Encoding: 82 82 50
Width: 363
Flags: W
LayerCount: 2
Fore
SplineSet
347 437 m 0,0,1
 329 443 329 443 299 443 c 0,2,3
 225 443 225 443 189 370 c 0,4,5
 161 313 161 313 161 224 c 2,6,-1
 161 -29 l 2,7,8
 161 -43 161 -43 147 -43 c 2,9,-1
 108 -43 l 2,10,11
 94 -43 94 -43 94 -29 c 2,12,-1
 94 377 l 2,13,14
 94 413 94 413 93.5 435.5 c 128,-1,15
 93 458 93 458 92 484 c 0,16,17
 92 498 92 498 106 498 c 2,18,-1
 143 498 l 2,19,20
 157 498 157 498 157 484 c 2,21,-1
 157 386 l 1,22,23
 206 512 206 512 301 512 c 0,24,25
 324 512 324 512 347 506 c 0,26,27
 353 504 353 504 357.5 499.5 c 128,-1,28
 362 495 362 495 362 487 c 2,29,-1
 362 445 l 2,30,31
 362 439 362 439 357 437 c 128,-1,32
 352 435 352 435 347 437 c 0,0,1
EndSplineSet
EndChar

StartChar: S
Encoding: 83 83 51
Width: 424
Flags: W
LayerCount: 2
Fore
SplineSet
66 23 m 0,0,1
 127 -2 127 -2 192 -2 c 0,2,3
 246 -2 246 -2 281 24.5 c 128,-1,4
 316 51 316 51 316 96 c 0,5,6
 316 122 316 122 296.5 146.5 c 128,-1,7
 277 171 277 171 249 187 c 0,8,9
 218 204 218 204 185.5 219.5 c 128,-1,10
 153 235 153 235 123 252 c 0,11,12
 87 272 87 272 70 301.5 c 128,-1,13
 53 331 53 331 53 363 c 0,14,15
 53 400 53 400 67 428 c 128,-1,16
 81 456 81 456 105 475 c 128,-1,17
 129 494 129 494 161 503 c 128,-1,18
 193 512 193 512 229 512 c 0,19,20
 267 512 267 512 295 508 c 128,-1,21
 323 504 323 504 351 496 c 0,22,23
 357 494 357 494 361.5 490 c 128,-1,24
 366 486 366 486 365 479 c 2,25,-1
 362 449 l 2,26,27
 361 441 361 441 356 439 c 128,-1,28
 351 437 351 437 346 439 c 0,29,30
 321 448 321 448 296 451.5 c 128,-1,31
 271 455 271 455 236 455 c 0,32,33
 120 455 120 455 120 363 c 0,34,35
 120 343 120 343 135.5 325 c 128,-1,36
 151 307 151 307 188 289 c 0,37,38
 220 273 220 273 251 258.5 c 128,-1,39
 282 244 282 244 318 224 c 0,40,41
 349 207 349 207 369.5 172 c 128,-1,42
 390 137 390 137 390 96 c 0,43,44
 390 56 390 56 374 27 c 128,-1,45
 358 -2 358 -2 331 -21 c 128,-1,46
 304 -40 304 -40 269 -49.5 c 128,-1,47
 234 -59 234 -59 197 -59 c 0,48,49
 175 -59 175 -59 157.5 -58 c 128,-1,50
 140 -57 140 -57 124.5 -55 c 128,-1,51
 109 -53 109 -53 93 -50 c 128,-1,52
 77 -47 77 -47 59 -42 c 0,53,54
 45 -37 45 -37 46 -24 c 2,55,-1
 50 13 l 2,56,57
 52 29 52 29 66 23 c 0,0,1
EndSplineSet
EndChar

StartChar: T
Encoding: 84 84 52
Width: 363
Flags: W
LayerCount: 2
Fore
SplineSet
345 -44 m 0,0,1
 303 -59 303 -59 262 -59 c 0,2,3
 181 -59 181 -59 155 -6 c 0,4,5
 138 30 138 30 138 121 c 2,6,-1
 138 440 l 1,7,-1
 44 440 l 2,8,9
 30 440 30 440 30 454 c 2,10,-1
 30 484 l 2,11,12
 30 498 30 498 44 498 c 2,13,-1
 138 498 l 1,14,-1
 138 633 l 2,15,16
 138 648 138 648 151 648 c 2,17,-1
 193 648 l 2,18,19
 206 648 206 648 206 633 c 2,20,-1
 206 498 l 1,21,-1
 317 498 l 2,22,23
 331 498 331 498 331 484 c 2,24,-1
 331 454 l 2,25,26
 331 440 331 440 317 440 c 2,27,-1
 206 440 l 1,28,-1
 206 87 l 2,29,30
 206 -2 206 -2 278 -2 c 0,31,32
 306 -2 306 -2 341 10 c 0,33,34
 346 12 346 12 350.5 10 c 128,-1,35
 355 8 355 8 355 2 c 2,36,-1
 357 -24 l 2,37,38
 359 -38 359 -38 345 -44 c 0,0,1
EndSplineSet
EndChar

StartChar: U
Encoding: 85 85 53
Width: 464
Flags: W
LayerCount: 2
Fore
SplineSet
395 618 m 1,0,-1
 244 691 l 1,1,-1
 244 -200 l 1,2,-1
 220 -200 l 1,3,-1
 220 691 l 1,4,-1
 69 618 l 1,5,-1
 232 799 l 1,6,-1
 395 618 l 1,0,-1
EndSplineSet
EndChar

StartChar: V
Encoding: 86 86 54
Width: 464
Flags: W
LayerCount: 2
Fore
SplineSet
395 -18 m 1,0,-1
 232 -199 l 1,1,-1
 69 -18 l 1,2,-1
 220 -91 l 1,3,-1
 220 800 l 1,4,-1
 244 800 l 1,5,-1
 244 -91 l 1,6,-1
 395 -18 l 1,0,-1
EndSplineSet
EndChar

StartChar: W
Encoding: 87 87 55
Width: 727
Flags: W
LayerCount: 2
Fore
SplineSet
579 333 m 0,0,1
 579 492 579 492 491 568 c 0,2,3
 413 635 413 635 277 635 c 2,4,-1
 169 635 l 1,5,-1
 169 20 l 1,6,-1
 230 20 l 2,7,8
 579 20 579 20 579 333 c 0,0,1
652 329 m 0,9,10
 652 236 652 236 620 163 c 128,-1,11
 588 90 588 90 531 42 c 0,12,13
 477 1 477 1 400 -21 c 128,-1,14
 323 -43 323 -43 226 -43 c 2,15,-1
 123 -43 l 2,16,17
 102 -43 102 -43 98.5 -39.5 c 128,-1,18
 95 -36 95 -36 95 -15 c 2,19,-1
 95 669 l 2,20,21
 95 690 95 690 98.5 693.5 c 128,-1,22
 102 697 102 697 123 697 c 2,23,-1
 280 697 l 2,24,25
 470 697 470 697 566 594 c 0,26,27
 652 499 652 499 652 329 c 0,9,10
EndSplineSet
EndChar

StartChar: X
Encoding: 88 88 56
Width: 545
Flags: W
LayerCount: 2
Fore
SplineSet
314 635 m 1,0,-1
 314 -29 l 2,1,2
 314 -43 314 -43 300 -43 c 2,3,-1
 254 -43 l 2,4,5
 240 -43 240 -43 240 -29 c 2,6,-1
 240 635 l 1,7,-1
 34 635 l 2,8,9
 20 635 20 635 20 649 c 2,10,-1
 20 683 l 2,11,12
 20 697 20 697 34 697 c 2,13,-1
 522 697 l 2,14,15
 536 697 536 697 536 683 c 2,16,-1
 536 649 l 2,17,18
 536 635 536 635 522 635 c 2,19,-1
 314 635 l 1,0,-1
EndSplineSet
EndChar

StartChar: Y
Encoding: 89 89 57
Width: 464
Flags: W
LayerCount: 2
Fore
SplineSet
47 -191 m 0,0,1
 35 -188 35 -188 37 -176 c 2,2,-1
 40 -142 l 2,3,4
 40 -130 40 -130 52 -135 c 0,5,6
 68 -141 68 -141 89 -141 c 256,7,8
 110 -141 110 -141 127.5 -134.5 c 128,-1,9
 145 -128 145 -128 154 -117 c 0,10,11
 165 -103 165 -103 178.5 -71 c 128,-1,12
 192 -39 192 -39 205 2 c 1,13,14
 160 124 160 124 116 243 c 128,-1,15
 72 362 72 362 27 484 c 0,16,17
 25 489 25 489 27 493.5 c 128,-1,18
 29 498 29 498 35 498 c 2,19,-1
 82 498 l 2,20,21
 96 498 96 498 102 484 c 2,22,-1
 237 96 l 1,23,24
 274 198 274 198 307.5 290.5 c 128,-1,25
 341 383 341 383 378 484 c 0,26,27
 383 498 383 498 398 498 c 2,28,-1
 441 498 l 2,29,30
 447 498 447 498 449 493.5 c 128,-1,31
 451 489 451 489 449 484 c 2,32,-1
 241 -74 l 2,33,34
 230 -103 230 -103 216.5 -126 c 128,-1,35
 203 -149 203 -149 189 -163 c 0,36,37
 171 -180 171 -180 149 -188.5 c 128,-1,38
 127 -197 127 -197 103 -197 c 0,39,40
 88 -197 88 -197 76 -196 c 128,-1,41
 64 -195 64 -195 47 -191 c 0,0,1
EndSplineSet
EndChar

StartChar: Z
Encoding: 90 90 58
Width: 658
Flags: W
LayerCount: 2
Fore
SplineSet
588 -40 m 1,0,-1
 70 -40 l 1,1,-1
 70 6 l 1,2,-1
 346 327 l 1,3,-1
 79 618 l 1,4,-1
 79 674 l 1,5,-1
 584 674 l 1,6,-1
 584 618 l 1,7,-1
 178 618 l 1,8,-1
 443 325 l 1,9,-1
 174 16 l 1,10,-1
 588 16 l 1,11,-1
 588 -40 l 1,0,-1
EndSplineSet
EndChar

StartChar: bracketleft
Encoding: 91 91 59
Width: 363
Flags: W
LayerCount: 2
Fore
SplineSet
160 -176 m 2,0,1
 146 -176 146 -176 143.5 -174 c 128,-1,2
 141 -172 141 -172 141 -158 c 2,3,-1
 141 762 l 2,4,5
 141 776 141 776 143.5 778.5 c 128,-1,6
 146 781 146 781 160 781 c 2,7,-1
 296 781 l 2,8,9
 311 781 311 781 313.5 779 c 128,-1,10
 316 777 316 777 316 763 c 2,11,-1
 316 750 l 2,12,13
 316 735 316 735 313.5 732.5 c 128,-1,14
 311 730 311 730 295 730 c 2,15,-1
 223 730 l 2,16,17
 212 730 212 730 210 728 c 128,-1,18
 208 726 208 726 208 714 c 2,19,-1
 208 -110 l 2,20,21
 208 -121 208 -121 209.5 -123 c 128,-1,22
 211 -125 211 -125 222 -125 c 2,23,-1
 295 -125 l 2,24,25
 311 -125 311 -125 313.5 -127.5 c 128,-1,26
 316 -130 316 -130 316 -145 c 2,27,-1
 316 -157 l 2,28,29
 316 -171 316 -171 313.5 -173.5 c 128,-1,30
 311 -176 311 -176 295 -176 c 2,31,-1
 160 -176 l 2,0,1
EndSplineSet
EndChar

StartChar: backslash
Encoding: 92 92 60
Width: 375
Flags: W
LayerCount: 2
Fore
SplineSet
360 -80 m 6,0,1
 372 -80 372 -80 373.5 -78 c 132,-1,2
 375 -76 375 -76 371 -64 c 6,3,-1
 92 742 l 6,4,5
 88 752 88 752 86 753.5 c 132,-1,6
 84 755 84 755 73 755 c 6,7,-1
 31 755 l 6,8,9
 19 755 19 755 17.5 753 c 132,-1,10
 16 751 16 751 20 740 c 6,11,-1
 299 -65 l 6,12,13
 303 -76 303 -76 305.5 -78 c 132,-1,14
 308 -80 308 -80 321 -80 c 6,15,-1
 360 -80 l 6,0,1
EndSplineSet
EndChar

StartChar: bracketright
Encoding: 93 93 61
Width: 363
Flags: W
LayerCount: 2
Fore
SplineSet
215 781 m 2,0,1
 229 781 229 781 231.5 779 c 128,-1,2
 234 777 234 777 234 763 c 2,3,-1
 234 -157 l 2,4,5
 234 -171 234 -171 231.5 -173.5 c 128,-1,6
 229 -176 229 -176 215 -176 c 2,7,-1
 79 -176 l 2,8,9
 64 -176 64 -176 61.5 -174 c 128,-1,10
 59 -172 59 -172 59 -158 c 2,11,-1
 59 -145 l 2,12,13
 59 -130 59 -130 61.5 -127.5 c 128,-1,14
 64 -125 64 -125 80 -125 c 2,15,-1
 152 -125 l 2,16,17
 163 -125 163 -125 165 -123 c 128,-1,18
 167 -121 167 -121 167 -109 c 2,19,-1
 167 715 l 2,20,21
 167 726 167 726 165.5 728 c 128,-1,22
 164 730 164 730 153 730 c 2,23,-1
 80 730 l 2,24,25
 64 730 64 730 61.5 732.5 c 128,-1,26
 59 735 59 735 59 750 c 2,27,-1
 59 762 l 2,28,29
 59 776 59 776 61.5 778.5 c 128,-1,30
 64 781 64 781 80 781 c 2,31,-1
 215 781 l 2,0,1
EndSplineSet
EndChar

StartChar: asciicircum
Encoding: 94 94 62
Width: 654
Flags: W
LayerCount: 2
Fore
SplineSet
588 258 m 2,0,1
 596 243 596 243 594.5 240.5 c 128,-1,2
 593 238 593 238 576 238 c 2,3,-1
 542 238 l 2,4,5
 526 238 526 238 522.5 240.5 c 128,-1,6
 519 243 519 243 512 257 c 2,7,-1
 331 625 l 1,8,9
 285 533 285 533 239 439.5 c 128,-1,10
 193 346 193 346 148 255 c 0,11,12
 141 242 141 242 137.5 240 c 128,-1,13
 134 238 134 238 119 238 c 2,14,-1
 86 238 l 2,15,16
 69 238 69 238 67 240.5 c 128,-1,17
 65 243 65 243 73 258 c 2,18,-1
 296 697 l 1,19,-1
 364 697 l 1,20,-1
 588 258 l 2,0,1
EndSplineSet
EndChar

StartChar: underscore
Encoding: 95 95 63
Width: 545
Flags: W
LayerCount: 2
Fore
SplineSet
542.5 -125.5 m 128,-1,1
 544 -127 544 -127 544 -138 c 2,2,-1
 544 -162 l 2,3,4
 544 -173 544 -173 542.5 -174.5 c 128,-1,5
 541 -176 541 -176 530 -176 c 2,6,-1
 24 -176 l 2,7,8
 13 -176 13 -176 11.5 -174.5 c 128,-1,9
 10 -173 10 -173 10 -162 c 2,10,-1
 10 -138 l 2,11,12
 10 -127 10 -127 11.5 -125.5 c 128,-1,13
 13 -124 13 -124 24 -124 c 2,14,-1
 530 -124 l 2,15,0
 541 -124 541 -124 542.5 -125.5 c 128,-1,1
EndSplineSet
EndChar

StartChar: grave
Encoding: 96 96 64
Width: 242
Flags: W
LayerCount: 2
Fore
SplineSet
180 583 m 2,0,1
 189 569 189 569 188 566.5 c 128,-1,2
 187 564 187 564 173 564 c 2,3,-1
 163 564 l 2,4,5
 155 564 155 564 150.5 564.5 c 128,-1,6
 146 565 146 565 142.5 566.5 c 128,-1,7
 139 568 139 568 135 572 c 128,-1,8
 131 576 131 576 125 583 c 2,9,-1
 23 697 l 2,10,11
 10 712 10 712 11.5 714.5 c 128,-1,12
 13 717 13 717 35 717 c 2,13,-1
 64 717 l 2,14,15
 74 717 74 717 79.5 716.5 c 128,-1,16
 85 716 85 716 89 714.5 c 128,-1,17
 93 713 93 713 96 709 c 128,-1,18
 99 705 99 705 104 698 c 2,19,-1
 180 583 l 2,0,1
EndSplineSet
EndChar

StartChar: a
Encoding: 97 97 65
Width: 545
Flags: W
LayerCount: 2
Fore
SplineSet
401 239 m 1,0,-1
 382 239 l 2,1,2
 326 241 326 241 282.5 234.5 c 128,-1,3
 239 228 239 228 210 217 c 0,4,5
 168 202 168 202 147 172.5 c 128,-1,6
 126 143 126 143 126 102 c 0,7,8
 126 77 126 77 134 55.5 c 128,-1,9
 142 34 142 34 159 22 c 0,10,11
 189 -2 189 -2 239 -2 c 0,12,13
 274 -2 274 -2 303.5 12 c 128,-1,14
 333 26 333 26 355 52 c 128,-1,15
 377 78 377 78 389 116.5 c 128,-1,16
 401 155 401 155 401 205 c 2,17,-1
 401 239 l 1,0,-1
116 414 m 0,18,19
 111 411 111 411 106.5 412.5 c 128,-1,20
 102 414 102 414 102 419 c 2,21,-1
 102 457 l 2,22,23
 102 471 102 471 116 478 c 0,24,25
 151 497 151 497 190.5 504.5 c 128,-1,26
 230 512 230 512 277 512 c 0,27,28
 377 512 377 512 423 464.5 c 128,-1,29
 469 417 469 417 469 321 c 2,30,-1
 469 70 l 2,31,32
 469 40 469 40 470 16.5 c 128,-1,33
 471 -7 471 -7 473 -29 c 0,34,35
 473 -43 473 -43 459 -43 c 2,36,-1
 423 -43 l 2,37,38
 409 -43 409 -43 409 -29 c 2,39,-1
 409 48 l 1,40,41
 388 -3 388 -3 338.5 -31 c 128,-1,42
 289 -59 289 -59 231 -59 c 0,43,44
 130 -59 130 -59 83 0 c 0,45,46
 67 20 67 20 59 46.5 c 128,-1,47
 51 73 51 73 51 99 c 0,48,49
 51 160 51 160 79.5 204 c 128,-1,50
 108 248 108 248 167 270 c 0,51,52
 239 296 239 296 388 296 c 2,53,-1
 401 296 l 1,54,-1
 401 326 l 2,55,56
 401 389 401 389 372.5 422 c 128,-1,57
 344 455 344 455 277 455 c 0,58,59
 232 455 232 455 192 445.5 c 128,-1,60
 152 436 152 436 116 414 c 0,18,19
EndSplineSet
EndChar

StartChar: b
Encoding: 98 98 66
Width: 606
Flags: W
LayerCount: 2
Fore
SplineSet
479 231 m 0,0,1
 480 273 480 273 471.5 313 c 128,-1,2
 463 353 463 353 444 385 c 128,-1,3
 425 417 425 417 393.5 436.5 c 128,-1,4
 362 456 362 456 316 456 c 0,5,6
 275 456 275 456 244.5 438.5 c 128,-1,7
 214 421 214 421 194 390 c 128,-1,8
 174 359 174 359 164 318 c 128,-1,9
 154 277 154 277 154 231 c 0,10,11
 154 186 154 186 166.5 144.5 c 128,-1,12
 179 103 179 103 200.5 72 c 128,-1,13
 222 41 222 41 251.5 22.5 c 128,-1,14
 281 4 281 4 316 4 c 0,15,16
 362 4 362 4 393.5 23.5 c 128,-1,17
 425 43 425 43 444 75 c 128,-1,18
 463 107 463 107 471.5 148 c 128,-1,19
 480 189 480 189 479 231 c 0,0,1
87 742 m 2,20,21
 87 756 87 756 101 756 c 2,22,-1
 140 756 l 2,23,24
 154 756 154 756 154 742 c 2,25,-1
 154 423 l 1,26,27
 179 464 179 464 225 488.5 c 128,-1,28
 271 513 271 513 328 513 c 0,29,30
 551 513 551 513 551 231 c 0,31,32
 552 175 552 175 539.5 123.5 c 128,-1,33
 527 72 527 72 499 33 c 128,-1,34
 471 -6 471 -6 428.5 -29.5 c 128,-1,35
 386 -53 386 -53 328 -53 c 0,36,37
 208 -53 208 -53 154 49 c 1,38,-1
 154 -29 l 2,39,40
 154 -43 154 -43 140 -43 c 2,41,-1
 101 -43 l 2,42,43
 87 -43 87 -43 87 -29 c 2,44,-1
 87 742 l 2,20,21
EndSplineSet
EndChar

StartChar: c
Encoding: 99 99 67
Width: 484
Flags: W
LayerCount: 2
Fore
SplineSet
440 -47 m 0,0,1
 410 -52 410 -52 382 -54 c 128,-1,2
 354 -56 354 -56 315 -56 c 0,3,4
 253 -56 253 -56 204.5 -34 c 128,-1,5
 156 -12 156 -12 122.5 26 c 128,-1,6
 89 64 89 64 71 116 c 128,-1,7
 53 168 53 168 53 228 c 0,8,9
 53 289 53 289 72 340.5 c 128,-1,10
 91 392 91 392 126.5 429.5 c 128,-1,11
 162 467 162 467 211.5 488.5 c 128,-1,12
 261 510 261 510 323 510 c 0,13,14
 356 510 356 510 383 507.5 c 128,-1,15
 410 505 410 505 441 498 c 0,16,17
 455 494 455 494 454 479 c 2,18,-1
 451 447 l 2,19,20
 449 435 449 435 436 438 c 0,21,22
 410 446 410 446 386 449.5 c 128,-1,23
 362 453 362 453 333 453 c 0,24,25
 282 453 282 453 243.5 436.5 c 128,-1,26
 205 420 205 420 179 390 c 128,-1,27
 153 360 153 360 140 318.5 c 128,-1,28
 127 277 127 277 127 228 c 0,29,30
 127 183 127 183 140.5 142 c 128,-1,31
 154 101 154 101 179.5 69.5 c 128,-1,32
 205 38 205 38 241.5 19.5 c 128,-1,33
 278 1 278 1 325 1 c 0,34,35
 360 1 360 1 383 4 c 128,-1,36
 406 7 406 7 435 15 c 0,37,38
 450 19 450 19 451 8 c 2,39,-1
 454 -29 l 2,40,41
 455 -44 455 -44 440 -47 c 0,0,1
EndSplineSet
EndChar

StartChar: d
Encoding: 100 100 68
Width: 606
Flags: W
LayerCount: 2
Fore
SplineSet
137 228 m 0,0,1
 137 181 137 181 144.5 142.5 c 128,-1,2
 152 104 152 104 168 75 c 0,3,4
 190 39 190 39 221.5 20 c 128,-1,5
 253 1 253 1 297 1 c 0,6,7
 337 1 337 1 367.5 22 c 128,-1,8
 398 43 398 43 418.5 75.5 c 128,-1,9
 439 108 439 108 449 148.5 c 128,-1,10
 459 189 459 189 459 228 c 0,11,12
 459 276 459 276 448.5 317 c 128,-1,13
 438 358 438 358 417.5 388 c 128,-1,14
 397 418 397 418 367 435 c 128,-1,15
 337 452 337 452 297 452 c 0,16,17
 212 452 212 452 168 379 c 0,18,19
 152 350 152 350 144.5 311.5 c 128,-1,20
 137 273 137 273 137 228 c 0,0,1
526 -29 m 2,21,22
 526 -43 526 -43 512 -43 c 2,23,-1
 473 -43 l 2,24,25
 459 -43 459 -43 459 -29 c 2,26,-1
 459 46 l 1,27,28
 405 -56 405 -56 285 -56 c 0,29,30
 178 -56 178 -56 118 26 c 0,31,32
 63 102 63 102 63 228 c 0,33,34
 63 509 63 509 285 509 c 0,35,36
 345 509 345 509 391.5 485 c 128,-1,37
 438 461 438 461 459 423 c 1,38,-1
 459 738 l 2,39,40
 459 752 459 752 473 752 c 2,41,-1
 512 752 l 2,42,43
 526 752 526 752 526 738 c 2,44,-1
 526 -29 l 2,21,22
EndSplineSet
EndChar

StartChar: e
Encoding: 101 101 69
Width: 545
Flags: W
LayerCount: 2
Fore
SplineSet
427 265 m 1,0,1
 427 306 427 306 419 338 c 128,-1,2
 411 370 411 370 394 396 c 0,3,4
 357 455 357 455 287 455 c 0,5,6
 215 455 215 455 170 395 c 0,7,8
 152 368 152 368 140 333 c 128,-1,9
 128 298 128 298 127 265 c 1,10,-1
 427 265 l 1,0,1
127 208 m 1,11,12
 126 158 126 158 138.5 119.5 c 128,-1,13
 151 81 151 81 175 55 c 128,-1,14
 199 29 199 29 232.5 15 c 128,-1,15
 266 1 266 1 307 1 c 0,16,17
 347 1 347 1 382 8.5 c 128,-1,18
 417 16 417 16 447 33 c 0,19,20
 460 39 460 39 460 26 c 2,21,-1
 460 -19 l 2,22,23
 460 -28 460 -28 449 -33 c 0,24,25
 416 -46 416 -46 380 -52.5 c 128,-1,26
 344 -59 344 -59 302 -59 c 0,27,28
 179 -59 179 -59 116 12.5 c 128,-1,29
 53 84 53 84 53 228 c 0,30,31
 53 355 53 355 116 433 c 0,32,33
 182 512 182 512 283 512 c 0,34,35
 339 512 339 512 380 492 c 128,-1,36
 421 472 421 472 450 432 c 0,37,38
 501 361 501 361 501 242 c 0,39,40
 501 229 501 229 500.5 222 c 128,-1,41
 500 215 500 215 497 212 c 128,-1,42
 494 209 494 209 486.5 208.5 c 128,-1,43
 479 208 479 208 465 208 c 2,44,-1
 127 208 l 1,11,12
EndSplineSet
EndChar

StartChar: f
Encoding: 102 102 70
Width: 363
Flags: W
LayerCount: 2
Fore
SplineSet
335 761 m 0,0,1
 348 757 348 757 347 740 c 2,2,-1
 345 711 l 2,3,4
 344 705 344 705 340 703.5 c 128,-1,5
 336 702 336 702 331 704 c 0,6,7
 320 708 320 708 311 709.5 c 128,-1,8
 302 711 302 711 290 711 c 0,9,10
 231 711 231 711 214 652 c 0,11,12
 207 628 207 628 207 546 c 2,13,-1
 207 498 l 1,14,-1
 317 498 l 2,15,16
 331 498 331 498 331 484 c 2,17,-1
 331 454 l 2,18,19
 331 440 331 440 317 440 c 2,20,-1
 207 440 l 1,21,-1
 207 -29 l 2,22,23
 207 -43 207 -43 193 -43 c 2,24,-1
 154 -43 l 2,25,26
 140 -43 140 -43 140 -29 c 2,27,-1
 140 440 l 1,28,-1
 43 440 l 2,29,30
 29 440 29 440 29 454 c 2,31,-1
 29 484 l 2,32,33
 29 498 29 498 43 498 c 2,34,-1
 140 498 l 1,35,-1
 140 539 l 2,36,37
 140 648 140 648 160 696 c 0,38,39
 191 768 191 768 284 768 c 0,40,41
 313 768 313 768 335 761 c 0,0,1
EndSplineSet
EndChar

StartChar: g
Encoding: 103 103 71
Width: 606
Flags: W
LayerCount: 2
Fore
SplineSet
461 230 m 0,0,1
 461 337 461 337 417 395 c 128,-1,2
 373 453 373 453 298 453 c 0,3,4
 217 453 217 453 176 399 c 128,-1,5
 135 345 135 345 135 228 c 0,6,7
 135 185 135 185 147 149 c 128,-1,8
 159 113 159 113 180 87.5 c 128,-1,9
 201 62 201 62 230 47.5 c 128,-1,10
 259 33 259 33 293 33 c 0,11,12
 328 33 328 33 359 47.5 c 128,-1,13
 390 62 390 62 412.5 88.5 c 128,-1,14
 435 115 435 115 448 151 c 128,-1,15
 461 187 461 187 461 230 c 0,0,1
117 -174 m 0,16,17
 105 -171 105 -171 107 -159 c 2,18,-1
 110 -115 l 2,19,20
 110 -102 110 -102 123 -109 c 0,21,22
 161 -126 161 -126 196 -133.5 c 128,-1,23
 231 -141 231 -141 272 -141 c 0,24,25
 363 -141 363 -141 408.5 -85.5 c 128,-1,26
 454 -30 454 -30 460 66 c 1,27,28
 437 21 437 21 392 -2 c 128,-1,29
 347 -25 347 -25 292 -25 c 0,30,31
 243 -25 243 -25 201 -7 c 128,-1,32
 159 11 159 11 128 44 c 128,-1,33
 97 77 97 77 79 124 c 128,-1,34
 61 171 61 171 61 228 c 0,35,36
 61 295 61 295 73.5 347.5 c 128,-1,37
 86 400 86 400 113 436 c 128,-1,38
 140 472 140 472 183 491 c 128,-1,39
 226 510 226 510 287 510 c 0,40,41
 340 510 340 510 380.5 492.5 c 128,-1,42
 421 475 421 475 463 430 c 1,43,-1
 461 484 l 2,44,45
 461 498 461 498 475 498 c 2,46,-1
 513 498 l 2,47,48
 527 498 527 498 527 484 c 2,49,-1
 527 84 l 2,50,51
 527 19 527 19 510.5 -33.5 c 128,-1,52
 494 -86 494 -86 461.5 -122.5 c 128,-1,53
 429 -159 429 -159 381 -178.5 c 128,-1,54
 333 -198 333 -198 271 -198 c 0,55,56
 226 -198 226 -198 192 -192.5 c 128,-1,57
 158 -187 158 -187 117 -174 c 0,16,17
EndSplineSet
EndChar

StartChar: h
Encoding: 104 104 72
Width: 727
Flags: W
LayerCount: 2
Fore
SplineSet
628 -29 m 2,0,1
 628 -43 628 -43 614 -43 c 2,2,-1
 569 -43 l 2,3,4
 555 -43 555 -43 555 -29 c 2,5,-1
 555 308 l 1,6,-1
 176 308 l 1,7,-1
 176 -29 l 2,8,9
 176 -43 176 -43 162 -43 c 2,10,-1
 117 -43 l 2,11,12
 103 -43 103 -43 103 -29 c 2,13,-1
 103 685 l 2,14,15
 103 699 103 699 117 699 c 2,16,-1
 162 699 l 2,17,18
 176 699 176 699 176 685 c 2,19,-1
 176 371 l 1,20,-1
 555 371 l 1,21,-1
 555 685 l 2,22,23
 555 699 555 699 569 699 c 2,24,-1
 614 699 l 2,25,26
 628 699 628 699 628 685 c 2,27,-1
 628 -29 l 2,0,1
EndSplineSet
EndChar

StartChar: i
Encoding: 105 105 73
Width: 242
Flags: W
LayerCount: 2
Fore
SplineSet
150 -43 m 2,1,-1
 106 -43 l 2,2,3
 92 -43 92 -43 92 -29 c 2,4,-1
 92 484 l 2,5,6
 92 498 92 498 106 498 c 2,7,-1
 150 498 l 2,8,9
 164 498 164 498 164 484 c 2,10,-1
 164 -29 l 2,11,0
 164 -43 164 -43 150 -43 c 2,1,-1
79 687 m 256,12,13
 79 707 79 707 93 721.5 c 128,-1,14
 107 736 107 736 127 736 c 256,15,16
 147 736 147 736 161.5 721.5 c 128,-1,17
 176 707 176 707 176 687 c 256,18,19
 176 667 176 667 161.5 653 c 128,-1,20
 147 639 147 639 127 639 c 256,21,22
 107 639 107 639 93 653 c 128,-1,23
 79 667 79 667 79 687 c 256,12,13
EndSplineSet
EndChar

StartChar: j
Encoding: 106 106 74
Width: 269
Flags: W
LayerCount: 2
Fore
SplineSet
23 -195 m 0,0,1
 9 -194 9 -194 9 -176 c 2,2,-1
 9 -148 l 2,3,4
 9 -136 9 -136 23 -139 c 0,5,6
 27 -140 27 -140 34.5 -140.5 c 128,-1,7
 42 -141 42 -141 48 -141 c 0,8,9
 72 -141 72 -141 88 -132.5 c 128,-1,10
 104 -124 104 -124 113 -110 c 0,11,12
 124 -88 124 -88 124 -38 c 2,13,-1
 124 484 l 2,14,15
 124 498 124 498 138 498 c 2,16,-1
 178 498 l 2,17,18
 192 498 192 498 192 484 c 2,19,-1
 192 -45 l 2,20,21
 192 -198 192 -198 67 -198 c 0,22,23
 53 -198 53 -198 43.5 -197.5 c 128,-1,24
 34 -197 34 -197 23 -195 c 0,0,1
109 687 m 256,25,26
 109 707 109 707 123 721.5 c 128,-1,27
 137 736 137 736 157 736 c 256,28,29
 177 736 177 736 191.5 721.5 c 128,-1,30
 206 707 206 707 206 687 c 256,31,32
 206 667 206 667 191.5 653 c 128,-1,33
 177 639 177 639 157 639 c 256,34,35
 137 639 137 639 123 653 c 128,-1,36
 109 667 109 667 109 687 c 256,25,26
EndSplineSet
EndChar

StartChar: k
Encoding: 107 107 75
Width: 940
Flags: W
LayerCount: 2
Fore
SplineSet
625 391 m 260,0,1
 625 359 625 359 613 330.5 c 132,-1,2
 601 302 601 302 580 281 c 132,-1,3
 559 260 559 260 530.5 248 c 132,-1,4
 502 236 502 236 470 236 c 260,5,6
 438 236 438 236 410 248 c 132,-1,7
 382 260 382 260 361 281 c 132,-1,8
 340 302 340 302 327.5 330.5 c 132,-1,9
 315 359 315 359 315 391 c 260,10,11
 315 423 315 423 327.5 451.5 c 132,-1,12
 340 480 340 480 361 501 c 132,-1,13
 382 522 382 522 410 534 c 132,-1,14
 438 546 438 546 470 546 c 260,15,16
 502 546 502 546 530.5 534 c 132,-1,17
 559 522 559 522 580 501 c 132,-1,18
 601 480 601 480 613 451.5 c 132,-1,19
 625 423 625 423 625 391 c 260,0,1
821 391 m 260,20,21
 821 463 821 463 793 527 c 132,-1,22
 765 591 765 591 717.5 638.5 c 132,-1,23
 670 686 670 686 606 714 c 132,-1,24
 542 742 542 742 470 742 c 260,25,26
 398 742 398 742 334.5 714 c 132,-1,27
 271 686 271 686 223 638.5 c 132,-1,28
 175 591 175 591 147.5 527 c 132,-1,29
 120 463 120 463 120 391 c 260,30,31
 120 319 120 319 147.5 255.5 c 132,-1,32
 175 192 175 192 223 144 c 132,-1,33
 271 96 271 96 334.5 68.5 c 132,-1,34
 398 41 398 41 470 41 c 260,35,36
 542 41 542 41 606 68.5 c 132,-1,37
 670 96 670 96 717.5 144 c 132,-1,38
 765 192 765 192 793 255.5 c 132,-1,39
 821 319 821 319 821 391 c 260,20,21
860 391 m 260,40,41
 860 310 860 310 829.5 239 c 132,-1,42
 799 168 799 168 746 115 c 132,-1,43
 693 62 693 62 622 31.5 c 132,-1,44
 551 1 551 1 470 1 c 4,45,46
 390 1 390 1 319 31.5 c 132,-1,47
 248 62 248 62 195 115 c 132,-1,48
 142 168 142 168 111 239 c 132,-1,49
 80 310 80 310 80 391 c 260,50,51
 80 472 80 472 111 543 c 132,-1,52
 142 614 142 614 195 667 c 132,-1,53
 248 720 248 720 319 750.5 c 132,-1,54
 390 781 390 781 470 781 c 4,55,56
 551 781 551 781 622 750.5 c 132,-1,57
 693 720 693 720 746 667 c 132,-1,58
 799 614 799 614 829.5 543 c 132,-1,59
 860 472 860 472 860 391 c 260,40,41
EndSplineSet
EndChar

StartChar: l
Encoding: 108 108 76
Width: 242
Flags: W
LayerCount: 2
Fore
SplineSet
151 -43 m 2,1,-1
 107 -43 l 2,2,3
 93 -43 93 -43 93 -29 c 2,4,-1
 93 738 l 2,5,6
 93 752 93 752 107 752 c 2,7,-1
 151 752 l 2,8,9
 165 752 165 752 165 738 c 2,10,-1
 165 -29 l 2,11,0
 165 -43 165 -43 151 -43 c 2,1,-1
EndSplineSet
EndChar

StartChar: m
Encoding: 109 109 77
Width: 908
Flags: W
LayerCount: 2
Fore
SplineSet
94 371 m 2,0,1
 94 413 94 413 93 437.5 c 128,-1,2
 92 462 92 462 90 484 c 0,3,4
 90 498 90 498 104 498 c 2,5,-1
 141 498 l 2,6,7
 155 498 155 498 155 484 c 2,8,-1
 155 430 l 1,9,10
 178 467 178 467 217 488.5 c 128,-1,11
 256 510 256 510 313 510 c 0,12,13
 373 510 373 510 418 480.5 c 128,-1,14
 463 451 463 451 473 394 c 1,15,16
 494 451 494 451 540.5 480.5 c 128,-1,17
 587 510 587 510 648 510 c 0,18,19
 687 510 687 510 718.5 496 c 128,-1,20
 750 482 750 482 772.5 457.5 c 128,-1,21
 795 433 795 433 807 400 c 128,-1,22
 819 367 819 367 819 330 c 2,23,-1
 819 -29 l 2,24,25
 819 -43 819 -43 805 -43 c 2,26,-1
 767 -43 l 2,27,28
 753 -43 753 -43 753 -30 c 2,29,-1
 753 316 l 2,30,31
 753 453 753 453 638 453 c 0,32,33
 603 453 603 453 575.5 437.5 c 128,-1,34
 548 422 548 422 528.5 395 c 128,-1,35
 509 368 509 368 499.5 332 c 128,-1,36
 490 296 490 296 491 256 c 2,37,-1
 491 -29 l 2,38,39
 491 -43 491 -43 477 -43 c 2,40,-1
 437 -43 l 2,41,42
 423 -43 423 -43 423 -29 c 2,43,-1
 423 316 l 2,44,45
 423 453 423 453 307 453 c 0,46,47
 239 453 239 453 200 409 c 128,-1,48
 161 365 161 365 161 293 c 2,49,-1
 161 -29 l 2,50,51
 161 -43 161 -43 147 -43 c 2,52,-1
 108 -43 l 2,53,54
 94 -43 94 -43 94 -29 c 2,55,-1
 94 371 l 2,0,1
EndSplineSet
EndChar

StartChar: n
Encoding: 110 110 78
Width: 606
Flags: W
LayerCount: 2
Fore
SplineSet
521 -29 m 2,0,1
 521 -43 521 -43 507 -43 c 2,2,-1
 467 -43 l 2,3,4
 453 -43 453 -43 453 -29 c 2,5,-1
 453 286 l 2,6,7
 453 378 453 378 420 416.5 c 128,-1,8
 387 455 387 455 327 455 c 0,9,10
 246 455 246 455 203.5 410 c 128,-1,11
 161 365 161 365 161 284 c 2,12,-1
 161 -29 l 2,13,14
 161 -43 161 -43 147 -43 c 2,15,-1
 107 -43 l 2,16,17
 93 -43 93 -43 93 -29 c 2,18,-1
 93 371 l 2,19,20
 93 414 93 414 92.5 438 c 128,-1,21
 92 462 92 462 90 484 c 0,22,23
 89 491 89 491 93.5 494.5 c 128,-1,24
 98 498 98 498 104 498 c 2,25,-1
 140 498 l 2,26,27
 154 498 154 498 154 484 c 2,28,-1
 154 429 l 1,29,30
 182 472 182 472 221.5 492 c 128,-1,31
 261 512 261 512 330 512 c 0,32,33
 425 512 425 512 473 457 c 128,-1,34
 521 402 521 402 521 302 c 2,35,-1
 521 -29 l 2,0,1
EndSplineSet
EndChar

StartChar: o
Encoding: 111 111 79
Width: 700
Flags: W
LayerCount: 2
Fore
SplineSet
576 353 m 4,0,1
 576 467 576 467 522 550 c 4,2,3
 491 593 491 593 447.5 617 c 132,-1,4
 404 641 404 641 350 641 c 4,5,6
 295 641 295 641 251.5 617 c 132,-1,7
 208 593 208 593 178 550 c 4,8,9
 123 468 123 468 123 353 c 4,10,11
 123 237 123 237 178 156 c 4,12,13
 209 113 209 113 252.5 89 c 132,-1,14
 296 65 296 65 350 65 c 260,15,16
 404 65 404 65 447.5 88 c 132,-1,17
 491 111 491 111 522 156 c 4,18,19
 548 196 548 196 562 246 c 132,-1,20
 576 296 576 296 576 353 c 4,0,1
649 353 m 4,21,22
 648 191 648 191 574 99 c 4,23,24
 494 0 494 0 350 0 c 260,25,26
 206 0 206 0 125 99 c 4,27,28
 50 193 50 193 50 353 c 4,29,30
 50 502 50 502 121 599 c 4,31,32
 163 650 163 650 220.5 677.5 c 132,-1,33
 278 705 278 705 350 705 c 4,34,35
 495 705 495 705 578 598 c 4,36,37
 613 549 613 549 631.5 488.5 c 132,-1,38
 650 428 650 428 649 353 c 4,21,22
EndSplineSet
EndChar

StartChar: p
Encoding: 112 112 80
Width: 606
Flags: W
LayerCount: 2
Fore
SplineSet
467 235 m 0,0,1
 467 276 467 276 459 314.5 c 128,-1,2
 451 353 451 353 432 383 c 128,-1,3
 413 413 413 413 383 431.5 c 128,-1,4
 353 450 353 450 308 450 c 0,5,6
 267 450 267 450 237 433 c 128,-1,7
 207 416 207 416 187.5 386.5 c 128,-1,8
 168 357 168 357 158 318 c 128,-1,9
 148 279 148 279 148 235 c 0,10,11
 148 119 148 119 191.5 59.5 c 128,-1,12
 235 0 235 0 308 0 c 0,13,14
 346 0 346 0 375.5 16.5 c 128,-1,15
 405 33 405 33 425.5 64 c 128,-1,16
 446 95 446 95 456.5 138 c 128,-1,17
 467 181 467 181 467 235 c 0,0,1
81 484 m 2,18,19
 81 498 81 498 95 498 c 2,20,-1
 133 498 l 2,21,22
 147 498 147 498 147 484 c 2,23,-1
 142 409 l 1,24,25
 162 453 162 453 209.5 480 c 128,-1,26
 257 507 257 507 320 507 c 0,27,28
 379 507 379 507 420.5 486 c 128,-1,29
 462 465 462 465 488.5 428.5 c 128,-1,30
 515 392 515 392 527.5 342 c 128,-1,31
 540 292 540 292 540 235 c 0,32,33
 540 173 540 173 525.5 120 c 128,-1,34
 511 67 511 67 483.5 28 c 128,-1,35
 456 -11 456 -11 415 -33.5 c 128,-1,36
 374 -56 374 -56 320 -56 c 0,37,38
 259 -56 259 -56 215 -32.5 c 128,-1,39
 171 -9 171 -9 148 33 c 1,40,-1
 148 -182 l 2,41,42
 148 -196 148 -196 134 -196 c 2,43,-1
 96 -196 l 2,44,45
 90 -196 90 -196 85.5 -192 c 128,-1,46
 81 -188 81 -188 81 -182 c 2,47,-1
 81 484 l 2,18,19
EndSplineSet
EndChar

StartChar: q
Encoding: 113 113 81
Width: 606
Flags: W
LayerCount: 2
Fore
SplineSet
141 235 m 0,0,1
 141 181 141 181 151.5 138 c 128,-1,2
 162 95 162 95 182 64 c 128,-1,3
 202 33 202 33 231.5 16.5 c 128,-1,4
 261 0 261 0 299 0 c 0,5,6
 373 0 373 0 416.5 59.5 c 128,-1,7
 460 119 460 119 460 235 c 0,8,9
 460 280 460 280 450 319 c 128,-1,10
 440 358 440 358 420 387 c 128,-1,11
 400 416 400 416 370 433 c 128,-1,12
 340 450 340 450 299 450 c 0,13,14
 254 450 254 450 224 432 c 128,-1,15
 194 414 194 414 175.5 384 c 128,-1,16
 157 354 157 354 149 315 c 128,-1,17
 141 276 141 276 141 235 c 0,0,1
527 -182 m 2,18,19
 527 -188 527 -188 522.5 -192 c 128,-1,20
 518 -196 518 -196 512 -196 c 2,21,-1
 474 -196 l 2,22,23
 460 -196 460 -196 460 -182 c 2,24,-1
 460 33 l 1,25,26
 437 -9 437 -9 393 -33 c 128,-1,27
 349 -57 349 -57 287 -57 c 0,28,29
 234 -57 234 -57 193 -34.5 c 128,-1,30
 152 -12 152 -12 124 27 c 128,-1,31
 96 66 96 66 82 119.5 c 128,-1,32
 68 173 68 173 68 235 c 0,33,34
 68 293 68 293 80.5 342.5 c 128,-1,35
 93 392 93 392 119 428.5 c 128,-1,36
 145 465 145 465 186.5 486 c 128,-1,37
 228 507 228 507 287 507 c 0,38,39
 350 507 350 507 398 480 c 128,-1,40
 446 453 446 453 466 409 c 1,41,-1
 461 484 l 2,42,43
 461 498 461 498 475 498 c 2,44,-1
 513 498 l 2,45,46
 527 498 527 498 527 484 c 2,47,-1
 527 -182 l 2,18,19
EndSplineSet
EndChar

StartChar: r
Encoding: 114 114 82
Width: 363
Flags: W
LayerCount: 2
Fore
SplineSet
347 437 m 0,0,1
 329 443 329 443 299 443 c 0,2,3
 225 443 225 443 189 370 c 0,4,5
 161 313 161 313 161 224 c 2,6,-1
 161 -29 l 2,7,8
 161 -43 161 -43 147 -43 c 2,9,-1
 108 -43 l 2,10,11
 94 -43 94 -43 94 -29 c 2,12,-1
 94 377 l 2,13,14
 94 413 94 413 93.5 435.5 c 128,-1,15
 93 458 93 458 92 484 c 0,16,17
 92 498 92 498 106 498 c 2,18,-1
 143 498 l 2,19,20
 157 498 157 498 157 484 c 2,21,-1
 157 386 l 1,22,23
 206 512 206 512 301 512 c 0,24,25
 324 512 324 512 347 506 c 0,26,27
 353 504 353 504 357.5 499.5 c 128,-1,28
 362 495 362 495 362 487 c 2,29,-1
 362 445 l 2,30,31
 362 439 362 439 357 437 c 128,-1,32
 352 435 352 435 347 437 c 0,0,1
EndSplineSet
EndChar

StartChar: s
Encoding: 115 115 83
Width: 424
Flags: W
LayerCount: 2
Fore
SplineSet
66 23 m 0,0,1
 127 -2 127 -2 192 -2 c 0,2,3
 246 -2 246 -2 281 24.5 c 128,-1,4
 316 51 316 51 316 96 c 0,5,6
 316 122 316 122 296.5 146.5 c 128,-1,7
 277 171 277 171 249 187 c 0,8,9
 218 204 218 204 185.5 219.5 c 128,-1,10
 153 235 153 235 123 252 c 0,11,12
 87 272 87 272 70 301.5 c 128,-1,13
 53 331 53 331 53 363 c 0,14,15
 53 400 53 400 67 428 c 128,-1,16
 81 456 81 456 105 475 c 128,-1,17
 129 494 129 494 161 503 c 128,-1,18
 193 512 193 512 229 512 c 0,19,20
 267 512 267 512 295 508 c 128,-1,21
 323 504 323 504 351 496 c 0,22,23
 357 494 357 494 361.5 490 c 128,-1,24
 366 486 366 486 365 479 c 2,25,-1
 362 449 l 2,26,27
 361 441 361 441 356 439 c 128,-1,28
 351 437 351 437 346 439 c 0,29,30
 321 448 321 448 296 451.5 c 128,-1,31
 271 455 271 455 236 455 c 0,32,33
 120 455 120 455 120 363 c 0,34,35
 120 343 120 343 135.5 325 c 128,-1,36
 151 307 151 307 188 289 c 0,37,38
 220 273 220 273 251 258.5 c 128,-1,39
 282 244 282 244 318 224 c 0,40,41
 349 207 349 207 369.5 172 c 128,-1,42
 390 137 390 137 390 96 c 0,43,44
 390 56 390 56 374 27 c 128,-1,45
 358 -2 358 -2 331 -21 c 128,-1,46
 304 -40 304 -40 269 -49.5 c 128,-1,47
 234 -59 234 -59 197 -59 c 0,48,49
 175 -59 175 -59 157.5 -58 c 128,-1,50
 140 -57 140 -57 124.5 -55 c 128,-1,51
 109 -53 109 -53 93 -50 c 128,-1,52
 77 -47 77 -47 59 -42 c 0,53,54
 45 -37 45 -37 46 -24 c 2,55,-1
 50 13 l 2,56,57
 52 29 52 29 66 23 c 0,0,1
EndSplineSet
EndChar

StartChar: t
Encoding: 116 116 84
Width: 363
Flags: W
LayerCount: 2
Fore
SplineSet
345 -44 m 0,0,1
 303 -59 303 -59 262 -59 c 0,2,3
 181 -59 181 -59 155 -6 c 0,4,5
 138 30 138 30 138 121 c 2,6,-1
 138 440 l 1,7,-1
 44 440 l 2,8,9
 30 440 30 440 30 454 c 2,10,-1
 30 484 l 2,11,12
 30 498 30 498 44 498 c 2,13,-1
 138 498 l 1,14,-1
 138 633 l 2,15,16
 138 648 138 648 151 648 c 2,17,-1
 193 648 l 2,18,19
 206 648 206 648 206 633 c 2,20,-1
 206 498 l 1,21,-1
 317 498 l 2,22,23
 331 498 331 498 331 484 c 2,24,-1
 331 454 l 2,25,26
 331 440 331 440 317 440 c 2,27,-1
 206 440 l 1,28,-1
 206 87 l 2,29,30
 206 -2 206 -2 278 -2 c 0,31,32
 306 -2 306 -2 341 10 c 0,33,34
 346 12 346 12 350.5 10 c 128,-1,35
 355 8 355 8 355 2 c 2,36,-1
 357 -24 l 2,37,38
 359 -38 359 -38 345 -44 c 0,0,1
EndSplineSet
EndChar

StartChar: u
Encoding: 117 117 85
Width: 606
Flags: W
LayerCount: 2
Fore
SplineSet
523 -29 m 0,0,1
 523 -43 523 -43 509 -43 c 2,2,-1
 473 -43 l 2,3,4
 459 -43 459 -43 459 -29 c 2,5,-1
 459 54 l 1,6,7
 433 -6 433 -6 389.5 -32.5 c 128,-1,8
 346 -59 346 -59 280 -59 c 0,9,10
 93 -59 93 -59 93 150 c 2,11,-1
 93 484 l 2,12,13
 93 498 93 498 107 498 c 2,14,-1
 147 498 l 2,15,16
 161 498 161 498 161 484 c 2,17,-1
 161 168 l 2,18,19
 161 -2 161 -2 291 -2 c 0,20,21
 329 -2 329 -2 359.5 14.5 c 128,-1,22
 390 31 390 31 411 59.5 c 128,-1,23
 432 88 432 88 443 126 c 128,-1,24
 454 164 454 164 453 206 c 2,25,-1
 453 484 l 2,26,27
 453 498 453 498 467 498 c 2,28,-1
 507 498 l 2,29,30
 521 498 521 498 521 484 c 2,31,-1
 521 82 l 2,32,33
 521 49 521 49 521.5 23 c 128,-1,34
 522 -3 522 -3 523 -29 c 0,0,1
EndSplineSet
EndChar

StartChar: v
Encoding: 118 118 86
Width: 484
Flags: W
LayerCount: 2
Fore
SplineSet
288 -30 m 2,0,1
 283 -43 283 -43 268 -43 c 2,2,-1
 219 -43 l 2,3,4
 204 -43 204 -43 200 -30 c 2,5,-1
 24 484 l 2,6,7
 22 489 22 489 25 493.5 c 128,-1,8
 28 498 28 498 34 498 c 2,9,-1
 79 498 l 2,10,11
 91 498 91 498 97 484 c 2,12,-1
 245 26 l 1,13,-1
 399 484 l 2,14,15
 401 490 401 490 406 494 c 128,-1,16
 411 498 411 498 417 498 c 2,17,-1
 461 498 l 2,18,19
 467 498 467 498 470 493.5 c 128,-1,20
 473 489 473 489 471 484 c 2,21,-1
 288 -30 l 2,0,1
EndSplineSet
EndChar

StartChar: w
Encoding: 119 119 87
Width: 727
Flags: W
LayerCount: 2
Fore
SplineSet
579 333 m 0,0,1
 579 492 579 492 491 568 c 0,2,3
 413 635 413 635 277 635 c 2,4,-1
 169 635 l 1,5,-1
 169 20 l 1,6,-1
 230 20 l 2,7,8
 579 20 579 20 579 333 c 0,0,1
652 329 m 0,9,10
 652 236 652 236 620 163 c 128,-1,11
 588 90 588 90 531 42 c 0,12,13
 477 1 477 1 400 -21 c 128,-1,14
 323 -43 323 -43 226 -43 c 2,15,-1
 123 -43 l 2,16,17
 102 -43 102 -43 98.5 -39.5 c 128,-1,18
 95 -36 95 -36 95 -15 c 2,19,-1
 95 669 l 2,20,21
 95 690 95 690 98.5 693.5 c 128,-1,22
 102 697 102 697 123 697 c 2,23,-1
 280 697 l 2,24,25
 470 697 470 697 566 594 c 0,26,27
 652 499 652 499 652 329 c 0,9,10
EndSplineSet
EndChar

StartChar: x
Encoding: 120 120 88
Width: 545
Flags: W
LayerCount: 2
Fore
SplineSet
314 635 m 1,0,-1
 314 -29 l 2,1,2
 314 -43 314 -43 300 -43 c 2,3,-1
 254 -43 l 2,4,5
 240 -43 240 -43 240 -29 c 2,6,-1
 240 635 l 1,7,-1
 34 635 l 2,8,9
 20 635 20 635 20 649 c 2,10,-1
 20 683 l 2,11,12
 20 697 20 697 34 697 c 2,13,-1
 522 697 l 2,14,15
 536 697 536 697 536 683 c 2,16,-1
 536 649 l 2,17,18
 536 635 536 635 522 635 c 2,19,-1
 314 635 l 1,0,-1
EndSplineSet
EndChar

StartChar: y
Encoding: 121 121 89
Width: 464
Flags: W
LayerCount: 2
Fore
SplineSet
47 -191 m 0,0,1
 35 -188 35 -188 37 -176 c 2,2,-1
 40 -142 l 2,3,4
 40 -130 40 -130 52 -135 c 0,5,6
 68 -141 68 -141 89 -141 c 256,7,8
 110 -141 110 -141 127.5 -134.5 c 128,-1,9
 145 -128 145 -128 154 -117 c 0,10,11
 165 -103 165 -103 178.5 -71 c 128,-1,12
 192 -39 192 -39 205 2 c 1,13,14
 160 124 160 124 116 243 c 128,-1,15
 72 362 72 362 27 484 c 0,16,17
 25 489 25 489 27 493.5 c 128,-1,18
 29 498 29 498 35 498 c 2,19,-1
 82 498 l 2,20,21
 96 498 96 498 102 484 c 2,22,-1
 237 96 l 1,23,24
 274 198 274 198 307.5 290.5 c 128,-1,25
 341 383 341 383 378 484 c 0,26,27
 383 498 383 498 398 498 c 2,28,-1
 441 498 l 2,29,30
 447 498 447 498 449 493.5 c 128,-1,31
 451 489 451 489 449 484 c 2,32,-1
 241 -74 l 2,33,34
 230 -103 230 -103 216.5 -126 c 128,-1,35
 203 -149 203 -149 189 -163 c 0,36,37
 171 -180 171 -180 149 -188.5 c 128,-1,38
 127 -197 127 -197 103 -197 c 0,39,40
 88 -197 88 -197 76 -196 c 128,-1,41
 64 -195 64 -195 47 -191 c 0,0,1
EndSplineSet
EndChar

StartChar: z
Encoding: 122 122 90
Width: 658
Flags: W
LayerCount: 2
Fore
SplineSet
588 -40 m 1,0,-1
 70 -40 l 1,1,-1
 70 6 l 1,2,-1
 346 327 l 1,3,-1
 79 618 l 1,4,-1
 79 674 l 1,5,-1
 584 674 l 1,6,-1
 584 618 l 1,7,-1
 178 618 l 1,8,-1
 443 325 l 1,9,-1
 174 16 l 1,10,-1
 588 16 l 1,11,-1
 588 -40 l 1,0,-1
EndSplineSet
EndChar

StartChar: braceleft
Encoding: 123 123 91
Width: 303
Flags: W
LayerCount: 2
Fore
SplineSet
243 -173 m 2,0,1
 196 -173 196 -173 165 -139 c 0,2,3
 133 -102 133 -102 133 -44 c 2,4,-1
 133 137 l 2,5,6
 133 196 133 196 113 234 c 0,7,8
 105 250 105 250 94 259.5 c 128,-1,9
 83 269 83 269 69 274 c 0,10,11
 58 278 58 278 54 282 c 128,-1,12
 50 286 50 286 50 298 c 2,13,-1
 50 308 l 2,14,15
 50 319 50 319 55.5 323 c 128,-1,16
 61 327 61 327 70 331 c 0,17,18
 99 342 99 342 113 372 c 0,19,20
 133 410 133 410 133 471 c 2,21,-1
 133 649 l 2,22,23
 133 708 133 708 166 744 c 1,24,-1
 165 744 l 1,25,26
 194 779 194 779 244 779 c 2,27,-1
 283 779 l 2,28,29
 297 779 297 779 299.5 777 c 128,-1,30
 302 775 302 775 302 761 c 2,31,-1
 302 745 l 2,32,33
 302 732 302 732 299.5 730 c 128,-1,34
 297 728 297 728 283 728 c 2,35,-1
 250 728 l 2,36,37
 201 728 201 728 201 629 c 2,38,-1
 201 453 l 2,39,40
 201 337 201 337 108 303 c 1,41,42
 201 266 201 266 201 149 c 2,43,-1
 201 -23 l 2,44,45
 201 -122 201 -122 250 -122 c 2,46,-1
 285 -122 l 2,47,48
 298 -122 298 -122 300 -124 c 128,-1,49
 302 -126 302 -126 302 -139 c 2,50,-1
 302 -156 l 2,51,52
 302 -169 302 -169 300 -171 c 128,-1,53
 298 -173 298 -173 284 -173 c 2,54,-1
 243 -173 l 2,0,1
EndSplineSet
EndChar

StartChar: bar
Encoding: 124 124 92
Width: 242
Flags: W
LayerCount: 2
Fore
SplineSet
151 -151 m 2,1,-1
 107 -151 l 2,2,3
 93 -151 93 -151 93 -137 c 2,4,-1
 93 737 l 2,5,6
 93 751 93 751 107 751 c 2,7,-1
 151 751 l 2,8,9
 165 751 165 751 165 737 c 2,10,-1
 165 -137 l 2,11,0
 165 -151 165 -151 151 -151 c 2,1,-1
EndSplineSet
EndChar

StartChar: braceright
Encoding: 125 125 93
Width: 303
Flags: W
LayerCount: 2
Fore
SplineSet
74 779 m 2,0,1
 121 779 121 779 152 745 c 0,2,3
 184 708 184 708 184 650 c 2,4,-1
 184 469 l 2,5,6
 184 410 184 410 204 372 c 0,7,8
 212 356 212 356 223 346.5 c 128,-1,9
 234 337 234 337 248 332 c 0,10,11
 259 328 259 328 263 324 c 128,-1,12
 267 320 267 320 267 308 c 2,13,-1
 267 298 l 2,14,15
 267 287 267 287 261.5 283 c 128,-1,16
 256 279 256 279 247 275 c 0,17,18
 218 264 218 264 204 234 c 0,19,20
 184 196 184 196 184 135 c 2,21,-1
 184 -43 l 2,22,23
 184 -102 184 -102 151 -138 c 1,24,-1
 152 -138 l 1,25,26
 123 -173 123 -173 73 -173 c 2,27,-1
 34 -173 l 2,28,29
 20 -173 20 -173 17.5 -171 c 128,-1,30
 15 -169 15 -169 15 -155 c 2,31,-1
 15 -139 l 2,32,33
 15 -126 15 -126 17.5 -124 c 128,-1,34
 20 -122 20 -122 34 -122 c 2,35,-1
 67 -122 l 2,36,37
 116 -122 116 -122 116 -23 c 2,38,-1
 116 153 l 2,39,40
 116 269 116 269 209 303 c 1,41,42
 116 340 116 340 116 457 c 2,43,-1
 116 629 l 2,44,45
 116 728 116 728 67 728 c 2,46,-1
 32 728 l 2,47,48
 19 728 19 728 17 730 c 128,-1,49
 15 732 15 732 15 745 c 2,50,-1
 15 762 l 2,51,52
 15 775 15 775 17 777 c 128,-1,53
 19 779 19 779 33 779 c 2,54,-1
 74 779 l 2,0,1
EndSplineSet
EndChar

StartChar: asciitilde
Encoding: 126 126 94
Width: 654
Flags: W
LayerCount: 2
Fore
SplineSet
568 361 m 2,0,1
 576 350 576 350 576 346.5 c 128,-1,2
 576 343 576 343 568 330 c 0,3,4
 520 250 520 250 444 250 c 0,5,6
 406 250 406 250 321 288 c 0,7,8
 237 328 237 328 215 328 c 0,9,10
 178 328 178 328 132 267 c 0,11,12
 123 254 123 254 120 254 c 128,-1,13
 117 254 117 254 108 267 c 2,14,-1
 93 288 l 2,15,16
 85 300 85 300 85.5 305.5 c 128,-1,17
 86 311 86 311 94 325 c 0,18,19
 142 400 142 400 216 400 c 0,20,21
 258 400 258 400 339 362 c 0,22,23
 420 322 420 322 445 322 c 0,24,25
 465 322 465 322 486.5 338.5 c 128,-1,26
 508 355 508 355 530 385 c 0,27,28
 538 396 538 396 540 396.5 c 128,-1,29
 542 397 542 397 550 386 c 2,30,-1
 568 361 l 2,0,1
EndSplineSet
EndChar

StartChar: uni0082
Encoding: 130 130 95
Width: 940
Flags: W
LayerCount: 2
Fore
SplineSet
920 288 m 1,0,-1
 128 288 l 1,1,-1
 201 137 l 1,2,-1
 20 300 l 1,3,-1
 201 463 l 1,4,-1
 128 312 l 1,5,-1
 920 312 l 1,6,-1
 920 288 l 1,0,-1
EndSplineSet
EndChar

StartChar: uni0083
Encoding: 131 131 96
Width: 464
Flags: W
LayerCount: 2
Fore
SplineSet
395 618 m 1,0,-1
 244 691 l 1,1,-1
 244 -200 l 1,2,-1
 220 -200 l 1,3,-1
 220 691 l 1,4,-1
 69 618 l 1,5,-1
 232 799 l 1,6,-1
 395 618 l 1,0,-1
EndSplineSet
EndChar

StartChar: uni0084
Encoding: 132 132 97
Width: 940
Flags: W
LayerCount: 2
Fore
SplineSet
920 300 m 1,0,-1
 739 137 l 1,1,-1
 812 288 l 1,2,-1
 20 288 l 1,3,-1
 20 312 l 1,4,-1
 812 312 l 1,5,-1
 739 463 l 1,6,-1
 920 300 l 1,0,-1
EndSplineSet
EndChar

StartChar: uni0085
Encoding: 133 133 98
Width: 464
Flags: W
LayerCount: 2
Fore
SplineSet
395 -18 m 1,0,-1
 232 -199 l 1,1,-1
 69 -18 l 1,2,-1
 220 -91 l 1,3,-1
 220 800 l 1,4,-1
 244 800 l 1,5,-1
 244 -91 l 1,6,-1
 395 -18 l 1,0,-1
EndSplineSet
EndChar

StartChar: uni0086
Encoding: 134 134 99
Width: 940
Flags: W
LayerCount: 2
Fore
SplineSet
920 300 m 1,0,-1
 739 137 l 1,1,-1
 812 288 l 1,2,-1
 128 288 l 1,3,-1
 201 137 l 1,4,-1
 20 300 l 1,5,-1
 201 463 l 1,6,-1
 128 312 l 1,7,-1
 812 312 l 1,8,-1
 739 463 l 1,9,-1
 920 300 l 1,0,-1
EndSplineSet
EndChar

StartChar: uni0087
Encoding: 135 135 100
Width: 940
Flags: W
LayerCount: 2
Fore
SplineSet
604 394 m 1,0,-1
 336 394 l 1,1,-1
 470 28 l 1,2,-1
 604 394 l 1,0,-1
777 674 m 1,3,-1
 507 -40 l 1,4,-1
 433 -40 l 1,5,-1
 163 674 l 1,6,-1
 234 674 l 1,7,-1
 315 452 l 1,8,-1
 625 452 l 1,9,-1
 706 674 l 1,10,-1
 777 674 l 1,3,-1
EndSplineSet
EndChar

StartChar: uni0088
Encoding: 136 136 101
Width: 647
Flags: W
LayerCount: 2
Fore
SplineSet
617 190 m 1,0,-1
 314 190 l 1,1,-1
 262 -17 l 1,2,-1
 214 -6 l 1,3,-1
 263 190 l 1,4,-1
 30 190 l 1,5,-1
 30 242 l 1,6,-1
 277 242 l 1,7,-1
 312 382 l 1,8,-1
 30 382 l 1,9,-1
 30 434 l 1,10,-1
 326 434 l 1,11,-1
 377 636 l 1,12,-1
 425 625 l 1,13,-1
 377 434 l 1,14,-1
 617 434 l 1,15,-1
 617 382 l 1,16,-1
 363 382 l 1,17,-1
 328 242 l 1,18,-1
 617 242 l 1,19,-1
 617 190 l 1,0,-1
EndSplineSet
EndChar

StartChar: uni0089
Encoding: 137 137 102
Width: 748
Flags: W
LayerCount: 2
Fore
SplineSet
698 131 m 1,0,-1
 50 131 l 1,1,-1
 50 171 l 1,2,-1
 698 171 l 1,3,-1
 698 131 l 1,0,-1
698 292 m 1,4,-1
 50 292 l 1,5,-1
 50 332 l 1,6,-1
 698 332 l 1,7,-1
 698 292 l 1,4,-1
698 453 m 1,8,-1
 50 453 l 1,9,-1
 50 492 l 1,10,-1
 698 492 l 1,11,-1
 698 453 l 1,8,-1
EndSplineSet
EndChar

StartChar: uni008A
Encoding: 138 138 103
Width: 672
Flags: W
LayerCount: 2
Fore
SplineSet
642 -37 m 1,0,-1
 30 -37 l 1,1,-1
 30 0 l 1,2,-1
 642 0 l 1,3,-1
 642 -37 l 1,0,-1
628 76 m 1,4,-1
 609 41 l 1,5,-1
 41 347 l 1,6,-1
 41 376 l 1,7,-1
 610 665 l 1,8,-1
 628 632 l 1,9,-1
 98 361 l 1,10,-1
 628 76 l 1,4,-1
EndSplineSet
EndChar

StartChar: uni008B
Encoding: 139 139 104
Width: 672
Flags: W
LayerCount: 2
Fore
SplineSet
642 -37 m 1,0,-1
 30 -37 l 1,1,-1
 30 0 l 1,2,-1
 642 0 l 1,3,-1
 642 -37 l 1,0,-1
631 347 m 1,4,-1
 63 41 l 1,5,-1
 44 76 l 1,6,-1
 574 361 l 1,7,-1
 44 632 l 1,8,-1
 62 665 l 1,9,-1
 631 376 l 1,10,-1
 631 347 l 1,4,-1
EndSplineSet
EndChar

StartChar: uni008C
Encoding: 140 140 105
Width: 647
Flags: W
LayerCount: 2
Fore
SplineSet
617 190 m 1,0,-1
 314 190 l 1,1,-1
 262 -17 l 1,2,-1
 214 -6 l 1,3,-1
 263 190 l 1,4,-1
 30 190 l 1,5,-1
 30 242 l 1,6,-1
 277 242 l 1,7,-1
 312 382 l 1,8,-1
 30 382 l 1,9,-1
 30 434 l 1,10,-1
 326 434 l 1,11,-1
 377 636 l 1,12,-1
 425 625 l 1,13,-1
 377 434 l 1,14,-1
 617 434 l 1,15,-1
 617 382 l 1,16,-1
 363 382 l 1,17,-1
 328 242 l 1,18,-1
 617 242 l 1,19,-1
 617 190 l 1,0,-1
EndSplineSet
EndChar

StartChar: uni008D
Encoding: 141 141 106
Width: 940
Flags: W
LayerCount: 2
Fore
SplineSet
786 193 m 1,0,1
 775 178 775 178 758 164 c 128,-1,2
 741 150 741 150 719.5 140 c 128,-1,3
 698 130 698 130 673.5 124 c 128,-1,4
 649 118 649 118 624 118 c 0,5,6
 583 118 583 118 544 124 c 128,-1,7
 505 130 505 130 470 144 c 0,8,9
 456 150 456 150 435.5 156 c 128,-1,10
 415 162 415 162 393 167 c 128,-1,11
 371 172 371 172 350.5 175.5 c 128,-1,12
 330 179 330 179 315 179 c 0,13,14
 295 179 295 179 274.5 175.5 c 128,-1,15
 254 172 254 172 235.5 165.5 c 128,-1,16
 217 159 217 159 201 149.5 c 128,-1,17
 185 140 185 140 175 128 c 1,18,-1
 153 147 l 1,19,20
 164 162 164 162 181 176 c 128,-1,21
 198 190 198 190 219.5 200 c 128,-1,22
 241 210 241 210 265 216 c 128,-1,23
 289 222 289 222 315 222 c 0,24,25
 356 222 356 222 395.5 215.5 c 128,-1,26
 435 209 435 209 470 195 c 0,27,28
 510 179 510 179 552 170 c 128,-1,29
 594 161 594 161 624 161 c 0,30,31
 643 161 643 161 664 164.5 c 128,-1,32
 685 168 685 168 703.5 174.5 c 128,-1,33
 722 181 722 181 738 190.5 c 128,-1,34
 754 200 754 200 764 212 c 1,35,-1
 786 193 l 1,0,1
786 441 m 1,36,37
 775 426 775 426 758 412 c 128,-1,38
 741 398 741 398 719.5 388 c 128,-1,39
 698 378 698 378 673.5 372 c 128,-1,40
 649 366 649 366 624 366 c 0,41,42
 583 366 583 366 544 372 c 128,-1,43
 505 378 505 378 470 392 c 0,44,45
 456 398 456 398 435.5 404 c 128,-1,46
 415 410 415 410 393 415 c 128,-1,47
 371 420 371 420 350.5 423.5 c 128,-1,48
 330 427 330 427 315 427 c 0,49,50
 295 427 295 427 274.5 423.5 c 128,-1,51
 254 420 254 420 235.5 413.5 c 128,-1,52
 217 407 217 407 201 397.5 c 128,-1,53
 185 388 185 388 175 376 c 1,54,-1
 153 395 l 1,55,56
 164 410 164 410 181 424 c 128,-1,57
 198 438 198 438 219.5 448 c 128,-1,58
 241 458 241 458 265 464 c 128,-1,59
 289 470 289 470 315 470 c 0,60,61
 356 470 356 470 395.5 463.5 c 128,-1,62
 435 457 435 457 470 443 c 0,63,64
 510 427 510 427 552 418 c 128,-1,65
 594 409 594 409 624 409 c 0,66,67
 643 409 643 409 664 412.5 c 128,-1,68
 685 416 685 416 703.5 422.5 c 128,-1,69
 722 429 722 429 738 438.5 c 128,-1,70
 754 448 754 448 764 460 c 1,71,-1
 786 441 l 1,36,37
EndSplineSet
EndChar

StartChar: uni008E
Encoding: 142 142 107
Width: 714
Flags: W
LayerCount: 2
Fore
SplineSet
664 -40 m 1,0,-1
 593 -40 l 1,1,-1
 357 606 l 1,2,-1
 121 -40 l 1,3,-1
 50 -40 l 1,4,-1
 320 674 l 1,5,-1
 394 674 l 1,6,-1
 664 -40 l 1,0,-1
EndSplineSet
EndChar

StartChar: uni008F
Encoding: 143 143 108
Width: 613
Flags: W
LayerCount: 2
Fore
SplineSet
563 -40 m 1,0,-1
 50 -40 l 1,1,-1
 50 20 l 1,2,-1
 296 333 l 1,3,-1
 50 621 l 1,4,-1
 50 674 l 1,5,-1
 547 674 l 1,6,-1
 547 616 l 1,7,-1
 136 616 l 1,8,-1
 354 361 l 1,9,-1
 354 309 l 1,10,-1
 123 18 l 1,11,-1
 563 18 l 1,12,-1
 563 -40 l 1,0,-1
EndSplineSet
EndChar

StartChar: uni0090
Encoding: 144 144 109
Width: 658
Flags: W
LayerCount: 2
Fore
SplineSet
588 -40 m 1,0,-1
 70 -40 l 1,1,-1
 70 6 l 1,2,-1
 346 327 l 1,3,-1
 79 618 l 1,4,-1
 79 674 l 1,5,-1
 584 674 l 1,6,-1
 584 618 l 1,7,-1
 178 618 l 1,8,-1
 443 325 l 1,9,-1
 174 16 l 1,10,-1
 588 16 l 1,11,-1
 588 -40 l 1,0,-1
EndSplineSet
EndChar

StartChar: uni0091
Encoding: 145 145 110
Width: 940
Flags: W
LayerCount: 2
Fore
SplineSet
604 394 m 1,0,-1
 336 394 l 1,1,-1
 470 28 l 1,2,-1
 604 394 l 1,0,-1
777 674 m 1,3,-1
 507 -40 l 1,4,-1
 433 -40 l 1,5,-1
 163 674 l 1,6,-1
 234 674 l 1,7,-1
 315 452 l 1,8,-1
 625 452 l 1,9,-1
 706 674 l 1,10,-1
 777 674 l 1,3,-1
EndSplineSet
EndChar

StartChar: uni0092
Encoding: 146 146 111
Width: 508
Flags: W
LayerCount: 2
Fore
SplineSet
412 628 m 1,0,1
 404 647 404 647 391.5 657.5 c 128,-1,2
 379 668 379 668 362 668 c 0,3,4
 348 668 348 668 335 643 c 128,-1,5
 322 618 322 618 312 570.5 c 128,-1,6
 302 523 302 523 295 454.5 c 128,-1,7
 288 386 288 386 285 300 c 0,8,9
 282 194 282 194 270.5 112.5 c 128,-1,10
 259 31 259 31 235 -26 c 0,11,12
 219 -64 219 -64 195 -88 c 128,-1,13
 171 -112 171 -112 141 -112 c 0,14,15
 80 -112 80 -112 49 -53 c 1,16,-1
 93 -27 l 1,17,18
 102 -46 102 -46 114.5 -57 c 128,-1,19
 127 -68 127 -68 144 -68 c 0,20,21
 158 -68 158 -68 171 -43 c 128,-1,22
 184 -18 184 -18 194.5 29.5 c 128,-1,23
 205 77 205 77 212 145 c 128,-1,24
 219 213 219 213 221 300 c 0,25,26
 223 406 223 406 235 487.5 c 128,-1,27
 247 569 247 569 271 626 c 0,28,29
 287 664 287 664 311 688 c 128,-1,30
 335 712 335 712 365 712 c 0,31,32
 427 712 427 712 459 649 c 1,33,-1
 412 628 l 1,0,1
EndSplineSet
EndChar

StartChar: uni0093
Encoding: 147 147 112
Width: 754
Flags: W
LayerCount: 2
Fore
SplineSet
699 616 m 1,0,-1
 557 616 l 1,1,-1
 557 -40 l 1,2,-1
 491 -40 l 1,3,-1
 491 616 l 1,4,-1
 263 616 l 1,5,-1
 263 -40 l 1,6,-1
 197 -40 l 1,7,-1
 197 616 l 1,8,-1
 55 616 l 1,9,-1
 55 674 l 1,10,-1
 699 674 l 1,11,-1
 699 616 l 1,0,-1
EndSplineSet
EndChar
